<svg xmlns="http://www.w3.org/2000/svg" viewBox="0 0 192.76 192.76"><defs><style>.cls-1{fill:#fff;}.cls-1,.cls-2,.cls-3{fill-rule:evenodd;}.cls-2{fill:#1d4f79;}.cls-3{fill:#b2b2b2;}</style></defs><g id="Layer_2" data-name="Layer 2"><g id="Layer_1-2" data-name="Layer 1"><polygon class="cls-1" points="0 0 192.76 0 192.76 192.76 0 192.76 0 0 0 0"/><path class="cls-2" d="M69,99.86a14.74,14.74,0,0,1,0-29.45H97.81V99.86ZM126.63,41a14.74,14.74,0,0,1,0,29.45H97.8V41Zm1.17-23.69a41.73,41.73,0,1,1,0,83.45l-2.5-.08v23.52H67a41.72,41.72,0,0,1,0-83.44l2.5.07V17.26Z"/><path class="cls-3" d="M32.52,157.77C32,158.85,30,163,25.15,163c-5.09,0-8.24-4.47-8.24-9.11,0-4.35,2.94-8.94,8.2-8.94a7.94,7.94,0,0,1,7.41,5.34h8.19A15.66,15.66,0,0,0,25.15,138a15.9,15.9,0,1,0,.08,31.79,15.7,15.7,0,0,0,15.48-12Z"/><polygon class="cls-3" points="42.79 169.24 50.61 169.24 50.61 138.61 42.79 138.61 42.79 169.24 42.79 169.24"/><polygon class="cls-3" points="54.19 169.24 62.41 169.24 62.41 154.04 71.45 169.24 81.19 169.24 81.19 154.04 91.32 169.24 101.68 169.24 81.42 138.61 72.86 138.61 72.86 156.46 62.5 138.61 54.19 138.61 54.19 169.24 54.19 169.24"/><path class="cls-3" d="M102,169.24h7.49v-9.6h3.4c4.76,0,6.83-.87,8.94-2.65,1.94-1.66,3.23-4.93,3.23-8a10.42,10.42,0,0,0-3.6-8.11c-1.66-1.36-3.77-2.23-9.44-2.23H102v30.63Zm7.49-23.76h2.9c1.7,0,5.17,0,5.17,3.6s-3.39,3.68-4.88,3.68h-3.19v-7.28Z"/><path class="cls-3" d="M127.38,147.76a17.12,17.12,0,0,0-1.21,6.54,15.82,15.82,0,1,0,1.21-6.54Zm6.62,6.08c0-4.31,2.94-8.94,8.36-8.94,5.63,0,8.32,5.09,8.32,9.07s-2.69,9-8.24,9c-5.25,0-8.44-4.39-8.44-9.11Z"/><path class="cls-3" d="M160.07,169.24h7.5v-9.89h.08l7.08,9.89h8.94l-8.32-10.43c5.79-.95,7.62-6.13,7.62-9.65a10.64,10.64,0,0,0-3.77-8.36c-2-1.53-4.06-2.19-9.44-2.19h-9.69v30.63Zm7.5-23.76h2.85c3,0,5.05,1.36,5.05,4.14,0,1.49-.54,4.39-5.13,4.39h-2.77v-8.53Z"/></g></g></svg>