<svg xmlns="http://www.w3.org/2000/svg" viewBox="0 0 696 325.23"><defs><style>.cls-1{fill:#233774;}.cls-2{fill:#223978;}.cls-3{fill:#fefeff;}.cls-4{fill:#fff;}.cls-5{fill:#fdfefe;}.cls-6{fill:#fdfdfe;}.cls-7{fill:#243875;}.cls-8{fill:#243772;}.cls-9{fill:#233876;}.cls-10{fill:#243773;}</style></defs><g id="Layer_2" data-name="Layer 2"><g id="Layer_1-2" data-name="Layer 1"><path class="cls-1" d="M53.92.47l3.28,0,3.54,0H64.4l7.69,0C76,.39,79.87.35,83.75.32h7.49l3.48,0a67.47,67.47,0,0,1,45.8,17.37l3.62,3,2.38,2,1.14-1.25C157,11.58,170.13,1.21,184.16.5H187l3.27,0h14.82c3.87,0,7.74,0,11.61,0h7.46l3.46,0c10.61,0,21.26.82,31,5.32l2,.9c7.34,3.47,14.31,8.21,18.86,15a26.2,26.2,0,0,0,8-5.69C300,4.67,314.22,0,330.91.07l3.73,0c2.59,0,5.18,0,7.76,0,3.91,0,7.82,0,11.73-.06,21.89-.07,39.8,2.94,56.2,18.59a61.14,61.14,0,0,0,6.19,5.05l.78-1.76c5.58-10.24,17.5-16.78,28.22-20.24A47.93,47.93,0,0,1,456.66.46l3.7,0,4,0h2.05c3.57,0,7.14,0,10.72,0s7.31,0,11-.08q4.26,0,8.52,0c2,0,4,0,6-.06,17.56,0,29.93,6.3,42.26,18.54,1.24,1.3,2.48,2.61,3.69,3.94l1.29-1.11,3.74-3.19c1.19-1,2.37-2.09,3.5-3.19C572.55.48,592.64.15,612.65.3c3.43,0,6.85,0,10.28,0,21.07,0,39.42,1.09,55.59,16.33l1.92,1.79c16,16.54,15.54,38,15.48,59.35q0,3.81,0,7.62,0,7.95,0,15.91,0,9.16,0,18.34,0,8.86,0,17.73c0,2.5,0,5,0,7.51,0,3.5,0,7,0,10.49,0,1,0,2.05,0,3.11-.06,6.7-.75,12.53-4.85,18.1-10.77,8.94-22.84,8.68-36.18,8.57-3.07,0-6.14,0-9.22,0h-5.92l-2.75,0c-6-.09-10.51-1.18-15.49-4.55a16.39,16.39,0,0,1-3-4c-3.9.77-6.48,2.51-9.71,4.74-6,3.3-12,3.58-18.74,3.63l-2.71,0c-1.88,0-3.77,0-5.65,0-2.85,0-5.7.06-8.55.11-10.85.1-21.57.18-30-7.73a61.7,61.7,0,0,1-4.67-5.8l-2.75,1.64c-17.53,10.36-34,11.73-54.14,11.73-3,0-6.08,0-9.12.08-21.34.12-37.35-4.14-53-19.45L417.74,164c-1.22-1.35-1.22-1.35-1.22-3.35l-1.47,1.28-4.27,3.72c-1.39,1.23-2.77,2.49-4.12,3.77C390.09,185,371,185.12,349.46,185q-5.64,0-11.28,0l-7.24,0h-3.37c-9.17-.08-16.67-1.13-24.74-5.68l-3.2-1.77c-3.12-1.86-6.11-3.81-9.11-5.85l-1.69,2.75c-4,5.66-8.63,8.45-15.31,10.25a93.94,93.94,0,0,1-11,.46l-3.14,0h-6.53c-3.32,0-6.64,0-10,.08h-6.37l-3,.05c-6.39-.06-11.25-1.16-16-5.64a29.65,29.65,0,0,1-2-4h-2l-1,3a32.27,32.27,0,0,1-4.88,2.62L205,182.55a23,23,0,0,1-10,2.26l-2.77,0-3,0-3.09,0-6.49,0q-4.93,0-9.87.11l-6.3,0-3,.05c-7.34,0-12.64-1.58-18.24-6.4l-1.64-2L139,174.83c-3.4-5.16-3.74-10.38-3.68-16.4V156c0-2.63,0-5.26,0-7.89,0-1.83,0-3.66,0-5.49q0-7.2,0-14.41,0-7.37,0-14.72,0-14.43.1-28.85h-6L131,87.33c2.36,5.54,1.95,11.32,1.89,17.24l0,3.46c0,8.22-1,14-5.6,20.92-7.64,7.3-17.47,6-27.31,5.87l-4.52,0q-5.49,0-11-.14l0,2.64c.05,3.26.09,6.53.11,9.79,0,1.41,0,2.81.07,4.22,0,2,0,4.07.06,6.1l0,3.7c-.74,7.7-4.64,13.49-10.34,18.55-9.53,6.12-19.8,5.74-30.73,5.59-2.9,0-5.79,0-8.69,0-19.79,0-19.79,0-28-6.52l-1.56-2-1.63-1.93C.05,168.69.23,162.55.25,155.54l0-3.35q0-5.5,0-11c0-2.55,0-5.11,0-7.67q0-8,0-16.08,0-9.26,0-18.49,0-8.94,0-17.88,0-3.78,0-7.56C.07,52,.28,33.49,15.91,17,25.88,8,40.26.57,53.92.47Z"/><path class="cls-2" d="M26.41,191.14h4c2.82,0,5.63,0,8.45,0,3.57,0,7.14,0,10.72,0,2.78,0,5.56,0,8.34,0H63.8c13,.14,27.88,2.12,37.8,11.39a48.31,48.31,0,0,1,3.92,5.06l3-2.63,4-3.37,1.79-1.6c11.19-9.34,24.69-9,38.5-8.82q4.45.06,8.91,0l5.75,0h2.66c7.9.12,15.14,1,21.89,5.39l2.53,1.6a13.84,13.84,0,0,1,3,2.34l1.62-2.82c2.66-3.56,4.3-4.53,8.38-6.18a37.34,37.34,0,0,1,6.73-.39l2,0c2.11,0,4.23,0,6.35,0H227c3.12,0,6.23,0,9.35,0,4,0,7.92,0,11.88,0h9.22c1.45,0,2.91,0,4.37,0,11,0,21.6.75,31.43,6.09l2.48,1.33,1.77,1,.85-1.9c1.79-3.28,4.56-4.63,8.08-5.68a52.23,52.23,0,0,1,10.46-.6l2.56,0,8.37,0h2.9q7.59,0,15.18,0,7.83,0,15.65-.08,6,0,12.06,0l5.76,0q4,0,8.09,0l2.38,0c7.09.06,13.61,2.19,18.72,7.26l1.94,2.25,1.43-1.21,2-1.61,1.93-1.58c7.16-4.37,14.38-5.06,22.62-5h9.59c3.28,0,6.55,0,9.83-.05h6.33l2.93,0c10.55.1,18.78,3.14,26.33,10.53.56-.91,1.11-1.82,1.69-2.75,4.81-6.76,4.81-6.76,9.21-7.63,2.29-.15,4.54-.18,6.84-.16h2.54l5.32,0c2.69,0,5.38,0,8.08,0h5.18l2.42,0c6.9.11,12.29,2.07,17.16,7.06,2.83,4.52,2.7,8.79,2.67,14v2.28q0,3.7,0,7.43c0,1.72,0,3.44,0,5.16q0,6.79,0,13.57,0,6.93,0,13.86,0,13.59-.05,27.18h27c-.06-4.05-.12-8.1-.18-12.27q0-4.89-.08-9.78c0-3.42-.06-6.85-.12-10.27-.06-3.94-.09-7.88-.11-11.82,0-1.21,0-2.42-.08-3.66,0-12,3.74-21.37,12.12-30,6.66-6,13.84-9.09,22.45-11.19l1.9-.53c3.5-.79,7.06-.66,10.64-.68h2.52l5.3,0c2.67,0,5.34-.05,8-.08,15.49-.09,29,2.06,40.94,12.94A39.42,39.42,0,0,1,695.7,231.6c0,1.77,0,1.77,0,3.57s0,1.9,0,3.84c0,1.32,0,2.63,0,4,0,2.79,0,5.57,0,8.36,0,3.54,0,7.07.08,10.61,0,2.75,0,5.49,0,8.24,0,1.93,0,3.86.06,5.78,0,14.05-3.92,26.57-13.65,37-9.74,9.1-20,12-33.11,12H641.3c-2.71,0-5.41,0-8.12.05-20.67.08-20.67.08-29.6-6.43L601.43,317l-1.91-1.4-3-2c-.17.72-.33,1.44-.5,2.18-2.45,4.6-6.95,6.54-11.5,8.82-2.39.11-4.75.17-7.14.19l-2.22,0-7.33.06-2.53,0L552,325q-5.47,0-11,.08-6.63.07-13.25.08c-1.68,0-3.36,0-5,.05-9.23.12-17.51.19-25.26-5.56a23,23,0,0,1-4-5c-4.14,2-8.13,4.3-12.15,6.56-6.06,3.06-11.23,3.76-17.91,3.81l-2.63,0-5.51,0c-2.76,0-5.53.06-8.29.11-16.11.15-29.51-2.94-41.54-14.48a46.37,46.37,0,0,1-9-14.05l-1-2.26a23.08,23.08,0,0,1-1.19-8.54v-3.46c0-1.22,0-2.44,0-3.7v-3.81q0-5,.05-10c0-3.41,0-6.81,0-10.22q0-10,.1-20h-11l0,2.83q.12,13.23.18,26.48,0,6.81.09,13.61.07,6.57.08,13.15c0,1.67,0,3.34,0,5,.21,16.27.21,16.27-4.42,22.92-5.26,5-9.43,6.31-16.58,6.3h-6.86q-3.52,0-7.05.05H344.5l-2.11,0c-5.69-.06-10.37-1.3-14.8-5l-1.38-1.7-1.43-1.67c-3.1-4.95-3.51-9.75-3.49-15.49V299c0-2.37,0-4.74,0-7.11,0-1.65,0-3.3,0-4.95q0-6.5.05-13t0-13.27q0-13,.1-26h-10c0,.81,0,1.62-.08,2.45-.45,8.79-2.14,16.23-6.22,24-1,2.54-1,2.54.38,5l1.73,2.5c5.06,7.4,4.41,15,4.43,23.66,0,2.2,0,4.39.07,6.59,0,1.41,0,2.83,0,4.24s0,2.54,0,3.85c-.65,6.66-3.16,11.32-8.36,15.66C299.17,324.9,295,325,290.15,325l-2.43,0-5.06,0c-2.57,0-5.13,0-7.7.08H270l-2.31,0c-5.24,0-7.89-1.31-12.19-4.5-3.19-.27-3.19-.27-6.13,2-6.08,3.15-12.88,2.63-19.56,2.56-2.31,0-4.61,0-6.91,0-7.6,0-14,0-20.4-4.54a36.46,36.46,0,0,1-5-7L195.68,315l-2.54,1.86-2.46,1.82c-10.31,6.27-19.43,6.55-31.25,6.45-2.84,0-5.67,0-8.5,0-11.7,0-21.85-.63-31.6-7.86l-2.44-1.8c-3.57-2.84-7-5.8-10.37-8.88l-1.94,2-3.06,3-2,2a41,41,0,0,1-17,10l-3,1c-2,.1-4.06.14-6.09.16l-3.8,0H65.51l-4.24,0-8.88,0c-3.78,0-7.56,0-11.33.05l-8.76,0-4.17,0c-9,.08-15.79-.2-23.49-5.22C.29,315.41.28,310.9.23,305V302l0-3.25c0-3.55,0-7.09,0-10.64q0-3.7,0-7.4,0-7.76,0-15.52,0-9.93-.06-19.87,0-7.65,0-15.29,0-3.66,0-7.33c0-3.41,0-6.83,0-10.24l0-3.06c.05-5.74.56-9.25,4.52-13.73C10.61,190.31,18.81,191.07,26.41,191.14Z"/><path class="cls-3" d="M608.53,12.17c3.12,0,6.23,0,9.35,0l6,0h2.78c13.14.19,24.13,5.25,33.7,14.15a48.89,48.89,0,0,1,12.14,23.3l.52,1.85a29.33,29.33,0,0,1,.62,6.61l0,2.69v2.94l0,3.1q0,5.08,0,10.17c0,2.36,0,4.72,0,7.07q0,7.41,0,14.83,0,9.5.06,19,0,7.31,0,14.6c0,2.34,0,4.67,0,7,0,3.27,0,6.53,0,9.8l0,2.92c0,6-.67,10.52-4.92,15.07-6.68,5.11-11.49,4.57-19.77,4.61l-3.75.06h-3.62l-3.31,0c-4.06-.48-6.68-2-9.56-4.89-4.14-5.26-4.59-8.18-4.55-14.75v-2.48q0-3.93,0-7.86c0-1.77,0-3.55,0-5.32q0-6.52,0-13h-26l.11,8.13q0,3.91,0,7.83c0,1.81,0,3.61.07,5.42,0,2.61,0,5.21.06,7.82l.05,2.44c0,4.63-.37,7.57-3.34,11.36-6.47,5.82-12.35,5.27-20.69,5.37l-3.51.11c-6.26.07-10.91-.28-16.23-3.72-5-5.58-5-11.91-5-19v-3c0-3.31,0-6.62,0-9.93,0-2.31,0-4.63,0-6.94q0-7.27,0-14.54,0-9.27,0-18.55,0-7.17,0-14.33,0-3.42,0-6.84c0-18.46.24-35.33,13.78-49.48C577.23,13.31,591,12,608.53,12.17Z"/><path class="cls-3" d="M194.44,12.17l3.1,0H204c3.26,0,6.51,0,9.76-.08,13.78-.08,25.51.68,36.77,9.59l1.88,1.41a46.31,46.31,0,0,1,16.12,25.59A102.63,102.63,0,0,1,269,60l0,3.34q0,5.43,0,10.86l0,7.57q0,7.93,0,15.86c0,6.09,0,12.19.07,18.28.05,5.88.06,11.77.06,17.65,0,2.5,0,5,0,7.49,0,3.49,0,7,0,10.46l.05,3.11c-.08,6-1,9.36-5.25,13.73C258.51,173,251.47,172,244.64,172l-3.51.08c-6.72,0-11.33-.1-16.61-4.45-3.78-5.43-4.57-9.25-4.39-15.78l0-2.46c0-2.57.07-5.13.12-7.7,0-1.75,0-3.5,0-5.25q.08-6.4.2-12.81h-25l.18,7.59c0,2.45.07,4.9.09,7.35,0,1.69.06,3.38.11,5.07.43,17.32.43,17.32-3.93,22.59l-1.45,1.4-2.47,2.46c-5.56,2.42-11,2.11-17,2l-3.64,0c-6.78,0-11.6-.14-16.92-4.54-4.22-5.87-4.57-10.46-4.49-17.57v-3.15c0-3.43,0-6.85,0-10.28v-7.17q0-7.5.05-15,0-9.6,0-19.2,0-7.41,0-14.81c0-2.36,0-4.72,0-7.08,0-3.3,0-6.6,0-9.91V60.53c.12-13.42,4.19-24.93,13.6-34.83C170,16.3,180.73,12.17,194.44,12.17Z"/><path class="cls-3" d="M466,12.43h2.18l4.56,0c2.29,0,4.58-.05,6.86-.08,17.76-.13,33.64,4.26,46.77,16.92,6.61,7.45,10.27,15.31,10.49,25.25a8.58,8.58,0,0,1-3.36,6.15,46.62,46.62,0,0,1-9.52.53h-2.85l-5.95,0c-3,0-6.07,0-9.1,0h-5.79l-2.74,0c-4.21-.06-6.45-.17-10.07-2.49A54.58,54.58,0,0,1,483,53.51c-2.71-3.29-2.71-3.29-6.44-4.87a18,18,0,0,0-8.88,2.56c-2.43,2.39-2.43,2.39-2.87,6.19.39,5.48,3.82,8.7,7.75,12.25a115.73,115.73,0,0,0,11.81,6.62l6.21,3.23,3,1.57c3.68,2,7.23,4.1,10.79,6.27,2.55,1.55,5.14,3,7.77,4.37,1.8,1,3.59,2,5.38,2.94l2.23,1.2c9,5.22,14.36,12.81,17.35,22.72A42.15,42.15,0,0,1,532,148.17a57.1,57.1,0,0,1-37.66,23.15,166.82,166.82,0,0,1-18.71.69h-2c-18,0-34-3.74-47.35-16.55-6.76-7.25-10.83-14.38-11-24.4l-.08-2.88c.39-3,1-3.69,3.33-5.55a13.82,13.82,0,0,1,4-.41l2.43,0h11c2.88,0,5.76,0,8.63,0h5.51l2.6,0c5.44.06,8.51.94,12.85,4.53a31.56,31.56,0,0,1,3.25,3.68c2.4,3,3.53,4.18,7.5,4.63,4.06-.39,6.08-1.81,9.25-4.31,1.51-3,1.5-4.63,1-8-4.52-7.1-11-10.67-18.31-14.38l-6.45-3.38-3.2-1.66c-6.43-3.35-12.76-6.89-19.07-10.47l-3.9-2.19c-10.5-5.88-16.48-11.46-20.32-23.06-2.76-10.47-2-19.74,2.81-29.43,7.48-12.82,18.48-19.64,32.46-23.67A62.22,62.22,0,0,1,466,12.43Z"/><path class="cls-3" d="M338.66,12.38q3.52,0,7.07,0c7.5,0,14.53.16,21.79,2.28l2.93.82c12.53,4.32,22.81,12.2,29,24,2.1,4.46,3.32,7.85,3.29,12.84l0,2.85c-.27,2.53-.27,2.53-2.27,5.53a14.09,14.09,0,0,1-4,.45l-2.53.07H391.2l-2.83,0-5.93,0c-3,0-6,.08-9,.15l-5.77,0-2.71.09c-6.26-.07-9.35-1.76-13.81-6.14q-1.87-2-3.73-4.11c-2.66-2.31-4.35-2.62-7.87-2.62-3.28,1.32-6.36,2.73-8,6-.62,4.5-.36,6.46,2.21,10.27,4.64,5.15,10.85,8,16.91,11.23l7,3.78,3.47,1.86c4.32,2.36,8.56,4.86,12.81,7.36,3.87,2.24,7.86,4.13,11.9,6,8,4.33,13.61,11.59,16.63,20.14,2.83,11.36,1.91,22.16-3.94,32.32-7.71,12.14-20.2,19.12-33.8,23.11-6.45,1.35-13,1.26-19.58,1.26-2.22,0-4.44,0-6.66.08-17.47.13-33.11-4.38-46.21-16.58-7.53-8.09-11-16.72-11.15-27.71.5-2.71,1.28-3.46,3.4-5.16a13.21,13.21,0,0,1,4-.39l2.44,0,2.63,0H302c2.89,0,5.77,0,8.66,0h5.52l2.61,0c4.75,0,7.86.37,11.74,3.42a43.16,43.16,0,0,1,3.69,4.12,15.58,15.58,0,0,0,5.31,4.88,29.81,29.81,0,0,0,4.44-.38l2.37-.27a16.83,16.83,0,0,0,5.19-1.35,22.15,22.15,0,0,0,1-10c-2.75-5.16-6.12-7.75-11.13-10.5l-2.19-1.25c-6.91-3.91-13.93-7.63-20.93-11.38-32.43-17.4-32.43-17.4-36.75-30.87-2.34-12-2-23.17,4.66-33.63a58,58,0,0,1,34.43-22A131,131,0,0,1,338.66,12.38Z"/><path class="cls-4" d="M68.59,12c2.93,0,5.85,0,8.78,0,16.61,0,30.76,2.6,43.4,14.28A42.76,42.76,0,0,1,132.89,56.7l.08,2.39c0,3.94-.15,6-2.22,9.48C125,73.94,118.29,73,110.82,73.06c-2.23,0-4.45.06-6.68.11l-4.27,0-3.91,0c-4.3-.75-5.73-2.27-8.44-5.6-1.2-2.41-1.14-4.14-1.25-6.82-.35-3.91-.59-5-3.13-8.18-4.58-3.5-6.79-4.6-12.62-4-4.45,2.31-6.82,4.51-9,9a32.75,32.75,0,0,0-.51,7l-.06,2c-.05,2.09-.08,4.18-.12,6.27,0,1.42-.07,2.84-.1,4.27-.09,3.47-.15,6.94-.21,10.42l3.65-.1q6.75-.17,13.48-.23c1.94,0,3.88-.07,5.82-.13,2.8-.07,5.6-.1,8.4-.13L94.48,87c5.68,0,8.59,1.2,12.71,5.15,4.33,5,3.74,10.93,3.65,17.2a13.2,13.2,0,0,1-4.32,9.33l-2,2.12c-4.17,2.65-7.57,2.38-12.41,2.27l-2.73,0c-2.88,0-5.75-.07-8.62-.12l-5.86-.06q-7.17-.06-14.33-.19l.06,3.37c.08,4.16.12,8.32.16,12.48,0,1.79,0,3.59.08,5.38,0,2.59.07,5.18.09,7.77l.06,2.41c0,5.67-1.19,8.92-4.45,13.59-6.17,5.08-12.69,4.66-20.44,4.62l-3.6.1c-6.76,0-11.21-.58-16.49-5-4.26-5.16-3.77-11-3.78-17.32l0-3.22c0-3.52,0-7,0-10.55l0-7.35c0-5.14,0-10.28,0-15.42,0-6.56,0-13.13-.08-19.69q0-7.59,0-15.19,0-3.63,0-7.26c-.14-17.93.91-31.88,13.59-45.77C38.5,13.79,51.74,11.82,68.59,12Z"/><path class="cls-3" d="M21.42,199.44l3.1-.05q7.07-.06,14.14-.1c2.47,0,5,0,7.42-.09,3.58,0,7.16-.07,10.74-.09l3.31-.07a39.57,39.57,0,0,1,28.48,11.34c7.72,9.11,8.89,19.6,8.21,31.1-.61,4.41-2.7,8-5,11.74-1.63,2.54-1.63,2.54-1.31,6.42,1.31,2,2.65,4,4,6C98,274,98,284.57,95.46,293.2c-4.27,9.08-10.27,15.91-19.67,19.65l-2.27.79-2.44,1c-5,1.36-9.73,1.3-14.87,1.31l-3.3,0L46,316c-3.5,0-7,0-10.5.08h-6.7l-3.16,0c-5.85,0-9.64-.36-14.15-4.5a14.28,14.28,0,0,1-2.27-8.28l0-2.56V298l0-3c0-3.23,0-6.46,0-9.69l0-6.73c0-4.71,0-9.41,0-14.12,0-6,0-12-.08-18.08q0-7,0-13.91,0-3.33,0-6.67c0-3.11,0-6.22,0-9.32l0-2.78c0-4.34.27-7.22,3-10.67C15.36,199.84,16.84,199.51,21.42,199.44Z"/><path class="cls-5" d="M631.56,199.13c2.19,0,4.38,0,6.57-.08,12.3-.11,22.35,2.63,31.42,11.34,8.24,9.39,10.28,18.32,10.27,30.51v3.6c0,2.51,0,5,0,7.54,0,3.82,0,7.64,0,11.46v7.34l0,3.43c-.07,12.24-3.15,21.38-11.32,30.53-8.55,8.38-18.88,11.45-30.68,11.42l-3.58-.08h-3.61c-12.5-.13-22.21-2.91-31.4-11.58-9.57-10.13-11-20-11-33.5l0-3.39c0-2.37,0-4.73,0-7.1s0-4.81-.06-7.22q-.06-5.23-.07-10.48l-.05-3.21c0-10.73,3.27-20.9,10.48-29C609,201.45,618,199.09,631.56,199.13Z"/><path class="cls-5" d="M445.17,199.27c2.15,0,4.29-.05,6.44-.08,12.4-.11,21.84,2.65,30.91,11.45,8.46,9.77,10.47,19.54,10.4,32.21v3.45q0,3.6,0,7.18c0,3.65,0,7.28,0,10.93,0,2.33,0,4.67,0,7l0,3.26c-.11,12-3.32,21.13-11.35,30.12-8.65,8.47-19.07,11.45-31,11.47l-3.72-.07-3.73,0c-12.54-.1-22.35-3.4-31.32-12.25-8.84-9.68-10.63-20.51-10.73-33.23l0-3.43c0-2.39,0-4.77,0-7.16,0-3.62-.08-7.23-.15-10.84-.13-14.44.14-28.11,10.8-39.16C422.22,201.38,431.75,199.26,445.17,199.27Z"/><path class="cls-4" d="M149.8,199.18c1.42,0,2.84-.07,4.27-.13,12.17-.47,21.34,1.8,31,9.69,6.59,6.13,10.93,13.54,11.62,22.63q.15,5,.16,10l0,3.71,0,7.76c0,3.93.06,7.85.11,11.77,0,2.53,0,5.05,0,7.57l.06,3.51c-.06,10.83-2.89,21.34-10.61,29.27-10.61,9-21.26,11.23-34.89,11.15l-3.64.06c-10.4,0-19.1-2.11-27.48-8.49l-2.43-1.8a30.19,30.19,0,0,1-6.26-7.52l-1.76-2.73c-3.9-7.42-3.86-14.34-3.85-22.57v-3.67q0-3.84,0-7.67c0-3.9,0-7.79,0-11.69v-7.47l0-3.51c.06-11.68,3.13-20.8,11.28-29.35C127.3,200.54,136.73,199.36,149.8,199.18Z"/><path class="cls-6" d="M216.13,199l3.34-.05,3.59,0,3.72,0c2.6,0,5.21,0,7.81,0,3.95,0,7.9,0,11.86-.07h7.61l3.54,0c9.74.13,17.44,3.34,25.29,9.06,9.19,9.62,11.2,19.2,10.95,32-.41,8.74-3.24,15.52-9.32,21.77a74.07,74.07,0,0,0,6.56,10.68c4.12,6.63,3.81,13.16,3.81,20.72,0,2.16,0,4.31.08,6.47,0,1.38,0,2.75,0,4.13l0,3.78c-.58,3.78-1.51,4.9-4.49,7.22-4,2-8.94,1.27-13.31,1.31L274,316c-7.74.06-7.74.06-11.69-2.3-3-3.39-3-5.45-3-9.88l-.09-3.5q-.08-3.66-.13-7.32l-.09-3.49-.06-3.22c-.24-2.65-.24-2.65-1.5-4.52-2.95-1.8-5.69-1.7-9.11-1.86l-3.85-.2-3-.11.06,2.56c.07,3.17.12,6.33.16,9.5,0,1.36,0,2.73.08,4.09.05,2,.07,3.95.09,5.92l.06,3.58c-.55,4.06-1.86,6.2-4.45,9.35-4.7,1.56-9.45,1.26-14.38,1.31L220,316c-7.69.06-7.69.06-11.63-2.3-2.56-2.93-3-4.5-3-8.3l0-2.66v-2.93l0-3.08c0-3.37,0-6.75-.05-10.12l0-3.49q0-9.14-.06-18.26,0-9.45-.11-18.89-.06-7.24-.05-14.5,0-3.48,0-7c0-3.25,0-6.49,0-9.74l-.05-2.91c0-4.47.18-6.63,2.82-10.36C210.85,199.42,212.38,199,216.13,199Z"/><path class="cls-4" d="M317.74,199.33l2.22,0,7.27,0,5,0c3.54,0,7.07,0,10.61,0q6.78,0,13.57-.09,5.22,0,10.44,0c1.67,0,3.34,0,5,0,2.34,0,4.67,0,7,0l2.07,0c5.53.09,7.79,1.89,11.54,5.65,1.85,3.69,1.34,8,1,12-1.2,3.46-2.17,5.3-5,7.64-4.44,2-8.54,1.68-13.34,1.54l-2.82,0q-3.43,0-6.87-.14l0,3.11q.09,14.55.14,29.09,0,7.49.07,15,0,7.21.05,14.43c0,1.84,0,3.67,0,5.51,0,2.57,0,5.14,0,7.71l0,2.3c0,4.48-.58,7.34-3.37,10.89-4.65,3.09-9.41,2.4-14.88,2.43l-3.3.1-3.19,0-2.91.05c-3.91-.87-5.25-2.48-7.72-5.6a43.76,43.76,0,0,1-.57-8.37v-2.52c0-2.73,0-5.46.08-8.2,0-1.89,0-3.79,0-5.69q0-7.49.13-15c.05-5.09.07-10.19.1-15.28q.08-15,.24-30l-3.95.17-5.18.14-2.59.13c-4.33.08-7.32,0-10.77-2.78-4.28-4.55-4.95-7.11-4.83-13.15.47-3.64,1.93-5.79,4.32-8.51C311.08,199.26,313.63,199.33,317.74,199.33Z"/><path class="cls-6" d="M518.83,199.32l3.17-.08c7.71-.07,7.71-.07,11.63,2.17,3.91,4.6,4.17,8.37,4.12,14.3v2.45c0,2.68,0,5.35,0,8,0,1.86,0,3.71,0,5.57q0,7.32-.05,14.64,0,7.47,0,14.94,0,14.66-.1,29.31l3.5-.08q6.45-.13,12.89-.2c1.86,0,3.71-.06,5.57-.1,2.67-.06,5.35-.09,8-.11l2.51-.08c4.32,0,6,.17,9.53,2.9,3.54,4.77,2.76,10,2,15.67a14.72,14.72,0,0,1-4,6,27.25,27.25,0,0,1-9.3,1.17l-4,0-4.27,0-2.18,0-11.4,0c-3.91,0-7.83.05-11.75.09-3,0-6,0-9,0l-4.33,0c-2,0-4,0-6.08,0h-3.48c-4-.6-6.11-1.94-9.21-4.48a14.11,14.11,0,0,1-2.27-8.28l0-2.56V298l0-3c0-3.23,0-6.46,0-9.69l0-6.73c0-4.71,0-9.41,0-14.12,0-6,0-12-.08-18.08q0-7,0-13.91,0-3.33,0-6.67c0-3.11,0-6.22,0-9.32l0-2.78c.05-4.34.27-7.22,3.05-10.67C507.77,198.51,512.44,199.38,518.83,199.32Z"/><path class="cls-7" d="M152.59,224.2c3,.68,4.8,2.24,6.93,4.44,1.25,2.49,1.14,4.21,1.16,7l0,3.16v3.44l0,3.52q0,3.69,0,7.39c0,3.76,0,7.53.07,11.29,0,2.39,0,4.78,0,7.17l0,3.42v6a15.19,15.19,0,0,1-3.37,7.6c-3.74,2.49-5.57,2.45-10,2-2.75-1.8-4.53-3.06-6-6-.12-1.73-.17-3.47-.19-5.2l-.05-3.29q-.08-7.44-.11-14.89c0-2.62,0-5.24-.08-7.86-.06-3.77-.08-7.54-.09-11.31l-.07-3.55c0-9,0-9,3-12.14C147.18,224.19,148.78,224,152.59,224.2Z"/><path class="cls-8" d="M633.52,224.07l1.94-.06a11.31,11.31,0,0,1,7.06,5.63,63.6,63.6,0,0,1,.63,12.34v3.64c0,2.54,0,5.08,0,7.62,0,3.88,0,7.76,0,11.65l0,7.4v3.52c-.12,8.05-.12,8.05-2.49,12-2.53,2.17-3.57,2.75-6.9,3.05-3.58-.28-5.33-1.13-8.19-3.25-1.29-2.59-1.16-4.5-1.19-7.4l-.05-3.42q-.07-7.74-.11-15.47c0-2.72,0-5.45-.08-8.17-.06-3.92-.08-7.84-.09-11.76l-.07-3.69c0-8.44,0-8.44,3-11.86A13.55,13.55,0,0,1,633.52,224.07Z"/><path class="cls-8" d="M446.52,224.07l1.94-.06a11.31,11.31,0,0,1,7.06,5.63,63.6,63.6,0,0,1,.63,12.34v3.64c0,2.54,0,5.08,0,7.62,0,3.88,0,7.76,0,11.65l0,7.4v3.52c-.12,8.05-.12,8.05-2.49,12-2.53,2.17-3.57,2.75-6.9,3.05-3.58-.28-5.33-1.13-8.19-3.25-1.29-2.59-1.16-4.5-1.19-7.4l-.05-3.42q-.07-7.74-.11-15.47c0-2.72,0-5.45-.08-8.17-.06-3.92-.08-7.84-.09-11.76l-.07-3.69c0-8.44,0-8.44,3-11.86A13.55,13.55,0,0,1,446.52,224.07Z"/><path class="cls-9" d="M212.52,48.64c3.21,2.19,6.24,4.48,8,8,.09,2.32.11,4.65.1,7v2.08q0,3.28,0,6.57c0,1.49,0,3,0,4.45,0,3.64,0,7.29,0,10.93h-25q-.14-6.7-.22-13.4c0-1.52-.05-3-.08-4.56-.05-2.18-.07-4.37-.09-6.56l-.06-4c.52-4.07,1.57-5.63,4.45-8.5C204.15,47.55,207.17,47,212.52,48.64Z"/><path class="cls-8" d="M616.52,48.64c3.21,2.19,6.24,4.48,8,8,.09,2.25.11,4.5.1,6.75v2q0,3.18,0,6.36c0,1.44,0,2.87,0,4.31q0,5.28-.05,10.57h-25q-.13-6.26-.22-12.49c0-1.42,0-2.83-.08-4.24-.05-2-.07-4.08-.09-6.13l-.06-3.71c.54-4.12,1.87-6.22,4.45-9.43C608.1,47.48,611.19,47.05,616.52,48.64Z"/><path class="cls-8" d="M241.52,225.64c11,0,11,0,14.62,2.37,4.15,4.58,3.77,8.38,3.74,14.41-.52,4.67-1.8,6.24-5.36,9.22-3,1-3,1-13,1Z"/><path class="cls-7" d="M43.52,269.64c11.88-.58,11.88-.58,17,4,1.75,3.5,1.53,7.17,1,11-1.69,3.06-1.69,3.06-5,5a91,91,0,0,1-13,0Z"/><path class="cls-10" d="M43.52,224.64c12-.67,12-.67,15.75,1.93,2.64,3.59,3,5.55,2.72,9.91-.69,3.17-2.14,5-4.47,7.16-2.76,1.38-5.05,1.09-8.13,1.06l-5.87-.06Z"/></g></g></svg>