<?xml version="1.0" encoding="UTF-8"?>
<svg xmlns="http://www.w3.org/2000/svg" width="593.362" height="531.425">
  <path fill="#005eb8" d="M70.889 131.486c-15.269 2.968-27.645 18.22-27.645 34.065v342.05c0 15.846 12.376 26.286 27.645 23.318l494.827-96.185c15.267-2.968 27.645-18.22 27.645-34.065V58.622c0-15.847-12.378-26.286-27.645-23.318Z"></path>
  <path fill="#fff" d="M28.645 97.69C13.376 100.658 1 115.91 1 131.755v342.046c0 15.847 12.376 26.286 27.645 23.318l494.827-96.185c15.268-2.968 27.645-18.22 27.645-34.065V24.823c0-15.847-12.378-26.286-27.645-23.318Z"></path>
  <path fill="#00d2d2" d="M528.593.001a22.975 22.975 0 0 1 16.792 6.957 23.4 23.4 0 0 1 4.95 7.864 27.782 27.782 0 0 1 1.783 10v342.051a33.732 33.732 0 0 1-2.237 11.943 38.074 38.074 0 0 1-6.084 10.548 37.424 37.424 0 0 1-9.029 8.072 32.219 32.219 0 0 1-11.1 4.483L28.836 498.101a27.921 27.921 0 0 1-5.312.523 22.972 22.972 0 0 1-16.792-6.958 23.4 23.4 0 0 1-4.949-7.865 27.79 27.79 0 0 1-1.783-10V131.755a33.737 33.737 0 0 1 2.237-11.944 38.071 38.071 0 0 1 6.083-10.548 37.421 37.421 0 0 1 9.029-8.071 32.22 32.22 0 0 1 11.105-4.483L523.282.523a27.916 27.916 0 0 1 5.311-.522ZM23.524 496.627a25.915 25.915 0 0 0 4.93-.486l494.827-96.185c14.8-2.876 26.836-17.717 26.836-33.083V24.821c.001-13.22-9.051-22.82-21.523-22.82a25.907 25.907 0 0 0-4.929.486L28.836 98.672C14.039 101.548 2 116.389 2 131.755v342.046c0 13.228 9.052 22.826 21.524 22.826Z"></path>
  <g fill="#00d2d2">
    <path d="m262.609 372.775 7.715-6.533c3.422-2.924 4.666-4.542 4.666-6.781a3.755 3.755 0 0 0-4.044-3.919c-1.991 0-3.422.933-4.915 2.8a1.939 1.939 0 0 1-1.555.684 1.965 1.965 0 0 1-1.991-1.991 2.312 2.312 0 0 1 .5-1.369 9.692 9.692 0 0 1 8.337-4.044c4.915 0 8.275 2.986 8.275 7.466v.062c0 3.92-2.053 6.1-6.533 9.706l-5.164 4.293h10.2a1.929 1.929 0 1 1 0 3.857h-14.246a2.12 2.12 0 0 1-2.364-2.053 2.48 2.48 0 0 1 1.119-2.178ZM283.202 364.56v-.062c0-7.155 4.355-12.941 10.95-12.941 6.533 0 10.888 5.724 10.888 12.879v.062c0 7.155-4.355 12.941-10.95 12.941s-10.888-5.721-10.888-12.879Zm17.3 0v-.062c0-4.915-2.551-9.021-6.408-9.021s-6.346 3.919-6.346 8.9v.062c0 4.915 2.489 9.021 6.408 9.021s6.346-3.982 6.346-8.9ZM309.083 372.775l7.715-6.533c3.422-2.924 4.666-4.542 4.666-6.781a3.755 3.755 0 0 0-4.044-3.919c-1.991 0-3.422.933-4.915 2.8a1.939 1.939 0 0 1-1.555.684 1.965 1.965 0 0 1-1.991-1.991 2.312 2.312 0 0 1 .5-1.369 9.692 9.692 0 0 1 8.337-4.044c4.915 0 8.275 2.986 8.275 7.466v.062c0 3.92-2.053 6.1-6.533 9.706l-5.164 4.293h10.2a1.929 1.929 0 1 1 0 3.857h-14.247a2.12 2.12 0 0 1-2.364-2.053 2.48 2.48 0 0 1 1.12-2.178ZM330.609 374.704a2.1 2.1 0 0 1-.871-1.742 2.18 2.18 0 0 1 2.115-2.115 1.849 1.849 0 0 1 1.306.435 8.651 8.651 0 0 0 5.475 2.115c2.8 0 4.853-1.68 4.853-4.355v-.062c0-2.551-2.177-4.168-5.164-4.168-2.426 0-3.608.871-4.293.871a3.219 3.219 0 0 1-2.053-.871 2.205 2.205 0 0 1-.871-1.929l.56-9.021a2.046 2.046 0 0 1 1.991-1.991h11.381a2 2 0 0 1 1.991 1.991 1.914 1.914 0 0 1-1.991 1.929h-9.39l-.373 5.848a10.561 10.561 0 0 1 3.982-.747c4.915 0 8.772 2.551 8.772 7.9v.062c0 5.1-3.795 8.461-9.145 8.461a12.11 12.11 0 0 1-8.275-2.611Z"></path>
  </g>
  <path fill="#00d2d2" d="M203.567 367.861c-.684-1.991-1.369-3.982-2.115-5.91-.373-.933-.747-1.929-1.12-2.862s-.809-1.929-1.244-2.862a.606.606 0 0 0-1-.249 84.526 84.526 0 0 1-7.092 6.221 1.261 1.261 0 0 0-.373 1.307q.84 2.986 1.493 5.973c.435 1.991.871 4.106 1.182 6.159a.618.618 0 0 0 1 .373c1.493-1.058 3.048-2.115 4.542-3.235.747-.56 1.493-1.12 2.177-1.742l2.115-1.8a1.276 1.276 0 0 0 .436-1.369"></path>
  <path fill="#005eb8" d="M210.225 361.142a103.293 103.293 0 0 1-11.572-4.417.606.606 0 0 1-.249-1l1.618-1.68 1.555-1.742c.249-.311.5-.56.747-.871l.747-.933 1.493-1.866a1.038 1.038 0 0 1 1.244-.373c1.991.56 3.982 1.058 6.035 1.493 1.991.435 4.044.809 6.1 1.12a.618.618 0 0 1 .373 1c-1 1.555-2.115 3.049-3.173 4.542-.56.747-1.182 1.431-1.742 2.177s-1.182 1.431-1.8 2.115a1.31 1.31 0 0 1-1.369.436"></path>
  <path fill="#00d2d2" d="M173.02 385.468c.187-2.053.373-4.168.5-6.221s.124-4.168.124-6.159c0-.435-.436-.809-.809-.622-1.431.622-2.986 1.058-4.479 1.555-.747.249-1.493.436-2.24.622s-1.493.436-2.3.622a1.206 1.206 0 0 0-.871 1c-.311 1.991-.622 4.106-1.058 6.1s-.871 4.044-1.431 6.035a.6.6 0 0 0 .747.747 80.494 80.494 0 0 0 10.825-2.551 1.233 1.233 0 0 0 1-1.12"></path>
  <path fill="#005eb8" d="M181.916 381.987c-1.555-1.369-3.049-2.8-4.542-4.231-1.431-1.431-2.924-2.986-4.231-4.48a.616.616 0 0 1 .187-1l1.12-.435a5.513 5.513 0 0 0 1.058-.5l2.178-.933 2.115-1.058 1.058-.5 1.058-.56a1.047 1.047 0 0 1 1.307.187 122.052 122.052 0 0 0 10.017 7.341.614.614 0 0 1-.062 1.058l-2.364 1.493c-.809.5-1.618.933-2.426 1.369l-1.244.684a11.578 11.578 0 0 1-1.244.622l-2.489 1.244a1.644 1.644 0 0 1-1.493-.311"></path>
  <path fill="#00d2d2" d="M138.054 389.08c1.058-1.8 2.053-3.671 2.986-5.475.933-1.867 1.8-3.671 2.613-5.537a.585.585 0 0 0-.5-.871l-2.364-.187-1.182-.062-1.182-.124-2.364-.311c-.809-.124-1.555-.249-2.3-.435a1.175 1.175 0 0 0-1.182.56c-1.12 1.742-2.24 3.422-3.422 5.1s-2.426 3.36-3.733 4.977a.6.6 0 0 0 .373 1c1.8.436 3.608.871 5.413 1.182l2.737.5 2.737.373a1.39 1.39 0 0 0 1.369-.684"></path>
  <path fill="#005eb8" d="M147.512 389.573c-.871-1.867-1.68-3.857-2.426-5.786s-1.431-3.857-2.053-5.786a.667.667 0 0 1 .56-.871c1.555 0 3.173.124 4.728.062.809 0 1.555 0 2.364-.062l2.364-.182a1.139 1.139 0 0 1 1.12.684c.933 1.8 1.866 3.608 2.924 5.413s2.115 3.608 3.235 5.35a.674.674 0 0 1-.5 1 83.109 83.109 0 0 1-11.074.933 1.369 1.369 0 0 1-1.244-.747"></path>
  <path fill="#00d2d2" d="M104.583 378.188a107.136 107.136 0 0 0 9.581-7.839.67.67 0 0 0-.062-1.058l-2.115-1.058-2.053-1.182-1-.622-1-.622-1.991-1.306a1.235 1.235 0 0 0-1.307 0c-1.68 1.12-3.422 2.24-5.226 3.3s-3.608 2.053-5.475 2.986a.611.611 0 0 0-.062 1.058c1.431 1.182 2.986 2.24 4.479 3.36.747.5 1.555 1 2.3 1.555l1.182.747a11.562 11.562 0 0 0 1.182.684 1.412 1.412 0 0 0 1.555 0"></path>
  <path fill="#005eb8" d="M113.045 382.481c0-2.115.062-4.168.124-6.222.062-1.058.124-2.053.187-3.049.062-1.058.187-2.053.311-3.049a.646.646 0 0 1 .871-.56c.684.373 1.431.684 2.115 1 .747.311 1.431.684 2.178.933 1.493.56 2.924 1.182 4.417 1.68a1.109 1.109 0 0 1 .747 1.12c.062 2.053.249 4.106.5 6.159.187 2.053.5 4.106.809 6.221a.64.64 0 0 1-.809.685l-2.675-.747c-.871-.249-1.742-.56-2.675-.871-.871-.311-1.742-.56-2.613-.933l-2.613-1.058a1.511 1.511 0 0 1-.871-1.306"></path>
  <path fill="#00d2d2" d="M78.453 354.609c2.053-.436 4.106-.933 6.1-1.493s3.92-1.12 5.91-1.742a.564.564 0 0 0 .311-.933l-1.431-1.866-.747-.933-.684-1-1.369-1.929-1.244-1.991a1.3 1.3 0 0 0-1.244-.5c-1.991.311-4.044.622-6.1.871s-4.168.435-6.221.56a.612.612 0 0 0-.5.933 88.269 88.269 0 0 0 5.786 9.519 1.539 1.539 0 0 0 1.431.5"></path>
  <path fill="#005eb8" d="M84.426 361.95c.809-1.867 1.742-3.8 2.675-5.662s1.929-3.671 2.924-5.413a.679.679 0 0 1 1.058-.124l1.555 1.8a21.441 21.441 0 0 0 1.618 1.742c1.058 1.182 2.177 2.24 3.3 3.36a1.221 1.221 0 0 1 .249 1.307 108.252 108.252 0 0 0-3.857 11.759.663.663 0 0 1-1.058.311c-.747-.56-1.431-1.182-2.115-1.8l-2.053-1.866c-1.307-1.307-2.675-2.551-3.92-3.919a1.364 1.364 0 0 1-.373-1.493"></path>
  <path fill="#00d2d2" d="M64.145 322.444c2.053.435 4.106.809 6.1 1.12s4.106.56 6.159.747a.616.616 0 0 0 .684-.747l-.311-1.12-.249-1.12-.5-2.3-.373-2.3-.187-1.182-.124-1.182a1.359 1.359 0 0 0-.933-1 103.908 103.908 0 0 1-11.821-3.733.6.6 0 0 0-.809.684l.187 2.8c.062.933.249 1.866.311 2.737.187 1.866.56 3.671.871 5.475a1.332 1.332 0 0 0 1 1.12"></path>
  <path fill="#005eb8" d="M66.632 331.65c1.555-1.431 3.111-2.737 4.728-4.044s3.235-2.551 4.915-3.8a.652.652 0 0 1 1 .249 65.563 65.563 0 0 0 3.111 8.9 1.179 1.179 0 0 1-.311 1.306c-1.431 1.431-2.924 2.924-4.293 4.48s-2.737 3.111-4.044 4.728a.616.616 0 0 1-1.058-.124 83.3 83.3 0 0 1-4.355-10.265 1.225 1.225 0 0 1 .311-1.431"></path>
  <path fill="#00d2d2" d="M64.144 287.23c1.68 1.244 3.422 2.426 5.164 3.546s3.484 2.178 5.226 3.173a.615.615 0 0 0 .933-.373l.436-2.3.187-1.182.249-1.12.56-2.3.622-2.24a1.229 1.229 0 0 0-.436-1.244c-1.618-1.244-3.173-2.551-4.728-3.92s-3.111-2.8-4.542-4.293a.662.662 0 0 0-1.058.249l-.933 2.613-.436 1.307-.373 1.369-.747 2.675-.622 2.737a1.528 1.528 0 0 0 .5 1.307"></path>
  <path fill="#005eb8" d="M62.713 296.624c1.991-.684 3.982-1.244 5.973-1.8s3.982-1 5.973-1.431a.69.69 0 0 1 .809.684l-.311 2.364-.124 1.182-.062 1.182-.187 2.364-.062 2.364a1.18 1.18 0 0 1-.809 1.058c-1.929.747-3.8 1.493-5.724 2.3-1.866.809-3.8 1.742-5.662 2.675a.668.668 0 0 1-.933-.56l-.062-2.8v-1.369l.062-1.369.062-2.8.187-2.8a1.292 1.292 0 0 1 .871-1.244"></path>
  <path fill="#00d2d2" d="M78.516 255.065c1.058 1.8 2.115 3.546 3.235 5.288s2.3 3.422 3.546 5.1a.675.675 0 0 0 1.058.062 61.026 61.026 0 0 1 5.662-7.528 1.125 1.125 0 0 0 .124-1.307c-.933-1.8-1.866-3.671-2.737-5.537s-1.618-3.8-2.426-5.724a.65.65 0 0 0-1.058-.187 86.735 86.735 0 0 0-7.279 8.461 1.115 1.115 0 0 0-.124 1.369"></path>
  <path fill="#005eb8" d="M73.351 263.091c2.115.187 4.168.5 6.159.809s4.106.684 6.1 1.12a.623.623 0 0 1 .436.933l-.622 1-.622 1-1.182 2.053-1.058 2.115-.56 1.058-.5 1.058a1.081 1.081 0 0 1-1.182.622 102.757 102.757 0 0 0-12.381 0 .672.672 0 0 1-.622-.871l1.058-2.613c.373-.871.747-1.68 1.182-2.551.747-1.68 1.68-3.3 2.489-4.977a1.217 1.217 0 0 1 1.306-.747"></path>
  <path fill="#00d2d2" d="M104.713 231.548c.187 2.053.5 4.106.809 6.159s.684 4.044 1.12 6.035a.623.623 0 0 0 .933.436l1.991-1.244c.684-.436 1.369-.809 2.053-1.182 1.369-.809 2.8-1.493 4.168-2.177a1.126 1.126 0 0 0 .622-1.182 117.257 117.257 0 0 1-.124-12.381.7.7 0 0 0-.933-.622c-.871.311-1.742.684-2.551 1.058-.871.373-1.68.747-2.551 1.12-1.68.871-3.36 1.618-4.915 2.551a1.987 1.987 0 0 0-.622 1.431"></path>
  <path fill="#005eb8" d="M96.744 236.774c1.8 1.058 3.608 2.115 5.35 3.235s3.422 2.24 5.1 3.484a.614.614 0 0 1 .062 1l-1.929 1.369-1 .684-.933.747-1.866 1.431-1.8 1.555a1.335 1.335 0 0 1-1.369.124c-1.8-.933-3.671-1.8-5.537-2.675a59.241 59.241 0 0 0-5.786-2.364.623.623 0 0 1-.187-1.058 84.848 84.848 0 0 1 8.4-7.279 1.243 1.243 0 0 1 1.493-.249"></path>
  <path fill="#00d2d2" d="M138.179 220.719c-.622 1.991-1.244 3.982-1.742 5.973l-.747 2.986c-.249 1-.435 1.991-.684 3.048a.664.664 0 0 0 .684.809c.747-.187 1.555-.187 2.364-.311.809-.062 1.555-.249 2.364-.249 1.555-.124 3.111-.249 4.728-.249a1.181 1.181 0 0 0 1.058-.809c.684-1.929 1.493-3.857 2.3-5.724s1.742-3.8 2.675-5.661a.613.613 0 0 0-.56-.871l-2.8-.062c-.933-.062-1.866 0-2.8 0-.933.062-1.866 0-2.8.124l-2.8.187a1.057 1.057 0 0 0-1.244.809"></path>
  <path fill="#005eb8" d="M128.785 222.216a102.553 102.553 0 0 1 6.781 10.39.615.615 0 0 1-.373.933l-2.3.373-2.3.5-1.12.249-1.12.311-2.3.622a1.123 1.123 0 0 1-1.244-.436c-1.307-1.618-2.613-3.173-3.982-4.728s-2.8-3.049-4.293-4.479a.662.662 0 0 1 .249-1.058c1.742-.684 3.484-1.244 5.288-1.8.871-.249 1.8-.5 2.675-.747l1.369-.373c.435-.124.933-.187 1.369-.311a1.423 1.423 0 0 1 1.307.56"></path>
  <path fill="#00d2d2" d="M173.207 224.393c-1.369 1.493-2.738 3.173-4.044 4.791s-2.551 3.235-3.733 4.915a.635.635 0 0 0 .311 1c1.493.436 3.048.809 4.479 1.369l2.24.747 2.178.871a1.179 1.179 0 0 0 1.306-.311c1.431-1.431 2.924-2.862 4.417-4.293 1.555-1.431 3.111-2.8 4.728-4.106a.623.623 0 0 0-.187-1.058 91.82 91.82 0 0 0-10.265-4.293 1.477 1.477 0 0 0-1.431.373"></path>
  <path fill="#005eb8" d="M164 221.966c.436 2.053.809 4.106 1.182 6.159.311 2.053.622 4.044.809 6.1a.6.6 0 0 1-.747.684l-2.3-.56-1.12-.249-1.182-.187-2.3-.436c-.747-.124-1.555-.187-2.364-.311a1.268 1.268 0 0 1-1-.933c-.5-1.991-1.12-3.919-1.742-5.91s-1.307-3.92-2.053-5.91a.657.657 0 0 1 .684-.871c1.866.187 3.733.249 5.537.5l2.737.373 2.737.5a1.6 1.6 0 0 1 1.12 1.058"></path>
  <path fill="#00d2d2" d="M203.692 242.061c-1.929.871-3.8 1.742-5.6 2.675s-3.671 1.929-5.413 2.986a.62.62 0 0 0-.124 1l.933.747a10.329 10.329 0 0 1 .871.809l1.742 1.555 1.68 1.618.871.809.809.871a1.221 1.221 0 0 0 1.306.249 108.548 108.548 0 0 1 11.759-3.919.663.663 0 0 0 .311-1.058l-1.8-2.115-1.866-2.053-.933-1c-.311-.311-.684-.622-1-1l-1.991-1.929a1.475 1.475 0 0 0-1.555-.249"></path>
  <path fill="#005eb8" d="M196.226 236.088c-.435 2.053-.871 4.044-1.431 6.035s-1.12 3.982-1.742 5.91a.654.654 0 0 1-1 .373c-1.182-1-2.489-1.929-3.8-2.862a21.944 21.944 0 0 0-1.991-1.306c-.684-.436-1.307-.871-1.991-1.244a1.142 1.142 0 0 1-.5-1.244c.311-1.991.622-4.106.809-6.1.187-2.053.373-4.106.5-6.221a.612.612 0 0 1 .933-.5 99.845 99.845 0 0 1 9.581 5.724 1.378 1.378 0 0 1 .622 1.431M139.797 133.186l28.927 67.872a3.772 3.772 0 0 1-3.484 5.226h-42.616a7.706 7.706 0 0 1-7.093-4.666l-28.989-67.934a3.781 3.781 0 0 1 3.546-5.226h42.617a7.8 7.8 0 0 1 7.092 4.728"></path>
  <path fill="#00d2d2" d="M208.358 128.458h-42.617a7.816 7.816 0 0 0-7.155 4.728l-9.394 22.024L168.727 201a3.772 3.772 0 0 1-3.484 5.226h10.577a7.706 7.706 0 0 0 7.092-4.666l28.93-67.876a3.772 3.772 0 0 0-3.484-5.226Z"></path>
  <g fill="#005eb8">
    <path d="M118.519 322.569v-.062a16 16 0 0 1 16.3-16.114c4.728 0 7.839 1.058 10.639 3.049a3.4 3.4 0 0 1 1.431 2.737 3.346 3.346 0 0 1-3.36 3.36 3.7 3.7 0 0 1-2.115-.684 11.016 11.016 0 0 0-6.781-2.115c-4.977 0-8.959 4.417-8.959 9.706v.062c0 5.662 3.92 9.892 9.394 9.892a11.024 11.024 0 0 0 6.47-1.866v-4.417h-4.6a2.955 2.955 0 1 1 0-5.91h7.839a3.373 3.373 0 0 1 3.422 3.422v7.528a4.61 4.61 0 0 1-2.426 4.355 20.746 20.746 0 0 1-10.888 3.111c-9.709-.003-16.366-6.846-16.366-16.054ZM161.074 326.053l-10.017-13.625a4.111 4.111 0 0 1-.871-2.426 3.347 3.347 0 0 1 3.422-3.3 3.893 3.893 0 0 1 3.36 2.115l7.528 10.888 7.715-11.012a3.969 3.969 0 0 1 3.3-2.053 3.2 3.2 0 0 1 3.36 3.36 4.391 4.391 0 0 1-.871 2.426l-10.079 13.5v8.959a3.422 3.422 0 1 1-6.844 0ZM181.791 310.375a3.373 3.373 0 0 1 3.422-3.422h9.27c7.4 0 11.945 4.417 11.945 10.763v.062c0 7.217-5.6 10.95-12.567 10.95h-5.226v6.159a3.422 3.422 0 1 1-6.844 0Zm12.256 12.256c3.422 0 5.413-2.053 5.413-4.728v-.062c0-3.048-2.115-4.728-5.537-4.728h-5.288v9.519ZM209.041 334.762a3.237 3.237 0 0 1-1.307-2.551 3.147 3.147 0 0 1 3.173-3.173 3.224 3.224 0 0 1 1.929.622 13.049 13.049 0 0 0 7.963 2.8c2.8 0 4.479-1.12 4.479-2.924v-.062c0-1.742-1.058-2.613-6.284-3.982-6.284-1.618-10.328-3.36-10.328-9.519v-.062c0-5.662 4.542-9.394 10.888-9.394a18.4 18.4 0 0 1 9.892 2.737 3.2 3.2 0 0 1-1.68 5.91 3.345 3.345 0 0 1-1.742-.5 13.232 13.232 0 0 0-6.533-2.115c-2.613 0-3.982 1.182-3.982 2.737v.062c0 2.053 1.307 2.737 6.719 4.106 6.284 1.618 9.892 3.92 9.892 9.332v.062c0 6.159-4.728 9.643-11.447 9.643a20.2 20.2 0 0 1-11.632-3.729ZM235.856 324.746v-14.62a3.422 3.422 0 1 1 6.844 0v14.434c0 5.039 2.551 7.715 6.719 7.715s6.719-2.551 6.719-7.466v-14.683a3.422 3.422 0 0 1 6.844 0v14.434c0 9.394-5.288 14.06-13.625 14.06-8.401-.062-13.501-4.728-13.501-13.874ZM268.208 310.188a3.373 3.373 0 0 1 3.422-3.422h.747a3.436 3.436 0 0 1 3.111 1.8l8.275 13.5 8.335-13.5a3.265 3.265 0 0 1 3.049-1.742h.746a3.373 3.373 0 0 1 3.422 3.422v24.7a3.391 3.391 0 1 1-6.781 0v-15.488l-5.973 9.27a3.356 3.356 0 0 1-2.862 1.742 3.435 3.435 0 0 1-2.862-1.742l-5.91-9.083v15.491a3.36 3.36 0 1 1-6.719 0ZM319.349 313.237h-6.595a3.173 3.173 0 1 1 0-6.346h20.033a3.173 3.173 0 0 1 0 6.346h-6.595v21.654a3.422 3.422 0 1 1-6.844 0ZM339.133 310.375a3.373 3.373 0 0 1 3.422-3.422h10.825c3.982 0 7.03 1.12 9.083 3.173a9.72 9.72 0 0 1 2.675 7.092v.062c0 4.915-2.427 7.9-6.222 9.457l4.728 5.786a3.963 3.963 0 0 1 1.12 2.613 3.2 3.2 0 0 1-3.235 3.173 4.011 4.011 0 0 1-3.36-1.8l-6.657-8.461h-5.537v6.781a3.422 3.422 0 0 1-6.844 0Zm13.812 11.7c3.36 0 5.226-1.8 5.226-4.417v-.062c0-2.924-2.053-4.417-5.35-4.417h-6.844v8.959h6.968ZM368.125 322.569v-.062c0-8.835 6.968-16.114 16.611-16.114 9.581 0 16.487 7.155 16.487 15.989v.062c0 8.834-6.968 16.114-16.611 16.114s-16.487-7.093-16.487-15.989Zm25.881 0v-.062a9.433 9.433 0 0 0-9.395-9.768c-5.537 0-9.332 4.355-9.332 9.706v.062a9.433 9.433 0 0 0 9.394 9.768c5.538-.001 9.333-4.356 9.333-9.706ZM405.516 310.375a3.373 3.373 0 0 1 3.422-3.422h9.27c7.4 0 11.945 4.417 11.945 10.763v.062c0 7.217-5.6 10.95-12.567 10.95h-5.226v6.159a3.422 3.422 0 1 1-6.843 0Zm12.256 12.256c3.422 0 5.412-2.053 5.412-4.728v-.062c0-3.048-2.115-4.728-5.537-4.728h-5.288v9.519ZM433.45 310.126a3.422 3.422 0 1 1 6.844 0v9.146h12.63v-9.146a3.422 3.422 0 1 1 6.844 0v24.824a3.422 3.422 0 1 1-6.844 0v-9.332h-12.63v9.332a3.422 3.422 0 1 1-6.844 0ZM473.578 326.053l-10.017-13.625a4.11 4.11 0 0 1-.871-2.426 3.347 3.347 0 0 1 3.422-3.3 3.893 3.893 0 0 1 3.36 2.115L477 319.705l7.715-11.012a3.969 3.969 0 0 1 3.3-2.053 3.2 3.2 0 0 1 3.36 3.36 4.39 4.39 0 0 1-.871 2.426l-10.079 13.5v8.959a3.422 3.422 0 1 1-6.844 0Z"></path>
  </g>
  <g fill="#005eb8">
    <path d="M119.079 279.578a1.369 1.369 0 1 1 2.737 0v12.941a1.369 1.369 0 0 1-2.737 0ZM125.86 279.641a1.381 1.381 0 0 1 1.369-1.369h.311a1.646 1.646 0 0 1 1.431.809l7.715 9.954v-9.457a1.314 1.314 0 0 1 1.306-1.307 1.37 1.37 0 0 1 1.369 1.307v12.941a1.329 1.329 0 0 1-1.307 1.369h-.124a1.725 1.725 0 0 1-1.431-.809l-7.964-10.266v9.768a1.314 1.314 0 0 1-1.307 1.307 1.37 1.37 0 0 1-1.369-1.307ZM147.075 280.885h-3.733a1.2445 1.2445 0 0 1 0-2.489h10.266a1.2445 1.2445 0 0 1 0 2.489h-3.8v11.7a1.369 1.369 0 0 1-2.737 0ZM157.59 292.395v-12.692a1.381 1.381 0 0 1 1.369-1.369h8.959a1.182 1.182 0 1 1 0 2.364h-7.652v3.982h6.657a1.2 1.2 0 0 1 1.182 1.244 1.181 1.181 0 0 1-1.182 1.182h-6.657v4.168h7.777a1.182 1.182 0 0 1 0 2.364h-9.083a1.155 1.155 0 0 1-1.37-1.243ZM172.335 279.703a1.381 1.381 0 0 1 1.369-1.369h5.537a6.2 6.2 0 0 1 4.48 1.555 4.654 4.654 0 0 1 1.307 3.3v.062a4.536 4.536 0 0 1-3.484 4.6l2.924 3.733a1.623 1.623 0 0 1 .435 1.058 1.261 1.261 0 0 1-1.307 1.244 1.612 1.612 0 0 1-1.306-.684l-3.733-4.791h-3.422v4.168a1.369 1.369 0 1 1-2.737 0v-12.876Zm6.719 6.284c1.929 0 3.173-1 3.173-2.551v-.062c0-1.68-1.182-2.551-3.173-2.551h-3.919v5.164ZM188.262 279.641a1.381 1.381 0 0 1 1.369-1.369h.311a1.645 1.645 0 0 1 1.431.809l7.715 9.954v-9.457a1.314 1.314 0 0 1 1.307-1.307 1.37 1.37 0 0 1 1.367 1.308v12.941a1.329 1.329 0 0 1-1.306 1.369h-.124a1.725 1.725 0 0 1-1.431-.809l-7.963-10.266v9.768a1.314 1.314 0 0 1-1.307 1.307 1.37 1.37 0 0 1-1.369-1.307ZM204.811 292.021l5.724-12.754a1.744 1.744 0 0 1 1.618-1.12h.124a1.744 1.744 0 0 1 1.618 1.12l5.724 12.754a.923.923 0 0 1 .125.56 1.276 1.276 0 0 1-1.307 1.307 1.4 1.4 0 0 1-1.307-.933l-1.244-2.862h-7.462l-1.307 2.986a1.325 1.325 0 0 1-1.244.871 1.267 1.267 0 0 1-1.058-1.929Zm10.079-4.355-2.738-6.222-2.737 6.222ZM223.911 280.885h-3.733a1.2445 1.2445 0 1 1 0-2.489h10.266a1.2445 1.2445 0 0 1 0 2.489h-3.8v11.7a1.369 1.369 0 0 1-2.737 0ZM233.99 279.578a1.369 1.369 0 1 1 2.737 0v12.941a1.369 1.369 0 0 1-2.737 0ZM240.149 286.111a8.05705964 8.05705964 0 0 1 16.114-.062v.062a8.057 8.057 0 0 1-16.114 0Zm13.252 0a5.292 5.292 0 0 0-5.226-5.537 5.238 5.238 0 0 0-5.226 5.475v.062a5.232 5.232 0 1 0 10.452 0ZM259.56 279.641a1.381 1.381 0 0 1 1.369-1.369h.311a1.646 1.646 0 0 1 1.431.809l7.715 9.954v-9.457a1.314 1.314 0 0 1 1.306-1.307 1.37 1.37 0 0 1 1.369 1.307v12.941a1.328 1.328 0 0 1-1.306 1.369h-.124a1.724 1.724 0 0 1-1.431-.809l-7.964-10.266v9.768a1.314 1.314 0 0 1-1.306 1.307 1.37 1.37 0 0 1-1.369-1.307ZM276.109 292.021l5.724-12.754a1.743 1.743 0 0 1 1.618-1.12h.124a1.744 1.744 0 0 1 1.618 1.12l5.724 12.754a.924.924 0 0 1 .124.56 1.276 1.276 0 0 1-1.307 1.307 1.4 1.4 0 0 1-1.307-.933l-1.244-2.862h-7.461l-1.307 2.986a1.325 1.325 0 0 1-1.244.871 1.267 1.267 0 0 1-1.058-1.929Zm10.079-4.355-2.737-6.222-2.737 6.222ZM294.027 279.578a1.369 1.369 0 1 1 2.737 0v11.7h6.906a1.2445 1.2445 0 1 1 0 2.489h-8.337a1.381 1.381 0 0 1-1.369-1.369v-12.82Z"></path>
  </g>
</svg>
