<svg xmlns="http://www.w3.org/2000/svg" viewBox="0 0 780.548 143.15"><path d="M197.74 118.084c18.514 0 25.982-5.912 28.005-20.38l9.334-66.588H216.1l-9.335 67.21c-.467 3.578-2.645 5.134-7 5.134-4.357 0-6.068-1.556-5.602-5.134l9.49-67.21h-18.98l-9.335 66.587c-2.022 14.625 4.512 20.381 22.404 20.381zm-55.852-31.271l11.201-41.384h1.712l-3.112 41.384h-9.801zm-26.293 29.249h18.514l4.045-15.091H150.6l-1.089 15.09h18.67l3.578-84.945h-31.271l-24.893 84.946zm-57.564 0h17.58l5.912-41.85h1.09l10.268 41.85h17.891l11.98-84.946h-17.58l-6.224 44.029h-1.089l-9.957-44.03H70.01l-11.98 84.947zm-58.031 0h18.98l5.29-37.183h1.867l7.157 37.183h19.291l-8.712-45.118 19.292-39.828H44.029L27.537 65.032h-1.4L35.317 0H16.335L0 116.062zm247.813 27.088l9.514-67.539h18.359l2.022-14.313H259.35l2.178-15.869h19.914l2.022-14.313H244.57L228.832 143.15h18.98z" fill="#00a0e6"/><path d="M424.392 97.446l9.335-66.587h18.98l-9.49 67.21c-.467 3.578 1.244 5.134 5.6 5.134 4.357 0 6.535-1.556 7.002-5.134l9.334-67.21h18.98L474.8 97.446c-2.023 14.469-9.49 20.38-28.004 20.38-17.891 0-24.425-5.755-22.403-20.38zm-141.594 18.59h19.045l11.891-84.921h-19.048l-11.888 84.921zm104.856 1.449c20.018 0 28.994-8.129 30.692-24.264 3.033-27.78-22.2-24.506-20.139-39.67.728-5.944 4.61-8.25 11.284-8.25 4.244 0 8.978.85 12.616 2.427l2.184-15.285c-5.46-1.82-12.254-2.913-17.834-2.913-15.77 0-25.597 8.25-27.54 24.264-3.395 26.204 21.353 22.322 20.141 39.063-.365 5.702-2.912 9.1-12.011 9.1-4.124 0-9.828-.729-14.8-1.82l-2.185 15.77c5.58 1.093 12.617 1.578 17.592 1.578zm93.06-1.577h35.545l2.306-16.257h-16.499l9.583-68.664h-19.047l-11.888 84.92zm39.991 0l19.41.12 4.125-17.469h13.586l-.605 17.349 19.652.12.487-85.041h-33.607l-23.048 84.92zm26.93-31.421l10.07-42.096 2.305-.122-1.577 42.218h-10.798zm40.965 31.42h19.045l9.585-68.785h14.194l2.184-16.136h-47.313l-2.185 16.136h14.073l-9.583 68.786zm40.598 0h19.048l11.888-84.92h-19.047l-11.889 84.92zm54.89 1.578c17.105 0 25.841-8.493 28.63-29.48l3.52-25.355c2.667-19.046-2.064-33.24-24.386-33.24-17.834 0-25.598 8.613-28.631 29.48l-3.638 25.354c-3.033 21.351 4.49 33.24 24.505 33.24zm.365-15.044c-7.885 0-6.915-8.249-6.308-12.86l4.73-33.239c1.213-8.856 3.762-11.89 8.493-11.89 8.006 0 6.915 8.978 6.429 12.86l-4.731 33.241c-1.214 8.855-3.882 11.888-8.613 11.888zm-374.53 13.439h17.58l5.912-41.85h1.09l10.267 41.85h17.892l11.979-84.945h-17.58l-6.223 44.028h-1.09l-9.956-44.028h-17.892l-11.98 84.945zm405.905 0h17.58l5.912-41.85h1.09l10.267 41.85h17.891l11.98-84.945h-17.58l-6.223 44.028h-1.09L745.7 30.935h-17.892l-11.979 84.945z" fill="#cfd7d9"/></svg>