<svg xmlns="http://www.w3.org/2000/svg" width="960" height="220" viewBox="0 0 960 220">
<g>
<path d="M 285.57 181.89 C284.50,183.63 254.10,183.41 253.42,181.66 C253.14,180.92 254.53,173.16 256.51,164.41 C272.26,94.92 274.00,87.13 279.39,61.50 L 281.50 51.50 L 316.33 51.50 L 317.95 54.50 C318.84,56.15 326.27,71.57 334.47,88.76 C342.67,105.96 349.70,119.68 350.09,119.26 C350.49,118.84 353.36,106.35 356.47,91.50 C359.59,76.65 362.82,61.46 363.65,57.75 L 365.16 51.00 L 380.58 51.00 C395.15,51.00 396.00,51.11 396.00,52.93 C396.00,54.00 391.49,74.81 385.97,99.18 C380.45,123.56 374.13,151.60 371.91,161.50 C369.70,171.40 367.53,180.18 367.09,181.00 C366.45,182.19 363.60,182.56 353.18,182.78 C340.50,183.05 340.04,182.98 338.60,180.78 C337.79,179.53 329.41,162.30 319.99,142.50 C310.56,122.70 302.48,106.12 302.03,105.65 C300.91,104.50 300.59,105.73 296.58,127.00 C289.45,164.79 286.24,180.80 285.57,181.89 ZM 534.57 182.52 C518.61,187.32 503.21,180.57 496.42,165.80 C493.72,159.92 493.53,158.67 493.53,147.00 C493.53,136.73 493.94,133.16 495.86,127.00 C500.80,111.09 509.17,99.09 520.43,91.81 C529.91,85.67 537.14,83.85 554.88,83.13 L 570.27 82.50 L 574.42 63.79 C576.71,53.50 578.87,44.80 579.23,44.44 C580.22,43.45 616.41,39.04 617.19,39.82 C618.01,40.63 586.15,179.93 584.73,181.75 C584.02,182.66 579.30,183.00 567.44,183.00 C549.87,183.00 549.33,182.84 549.86,177.75 C550.23,174.28 549.54,174.31 544.00,178.02 C541.53,179.68 537.28,181.70 534.57,182.52 ZM 830.36 182.42 C813.81,186.67 800.68,181.22 793.81,167.27 C790.88,161.32 790.50,159.52 790.15,150.24 C789.66,137.03 791.10,129.75 796.42,118.46 C805.53,99.10 822.01,87.11 843.71,84.04 C850.64,83.06 902.75,82.42 903.64,83.30 C903.90,83.57 901.12,96.78 897.44,112.65 C893.77,128.52 888.76,150.27 886.31,160.98 C883.87,171.69 881.39,181.03 880.81,181.73 C880.04,182.66 875.61,183.00 864.46,183.00 C856.05,183.00 848.44,182.72 847.56,182.38 C846.33,181.91 846.10,180.97 846.59,178.38 C846.94,176.52 846.87,175.00 846.45,175.00 C846.02,175.00 843.61,176.32 841.09,177.92 C838.56,179.53 833.74,181.56 830.36,182.42 ZM 140.50 207.51 C135.55,208.94 127.79,210.38 123.25,210.70 C122.54,210.75 121.89,210.81 121.28,210.86 C118.47,211.10 116.74,211.24 115.87,210.45 C114.48,209.17 115.33,205.45 117.54,195.76 C117.84,194.46 118.16,193.05 118.50,191.53 C123.96,167.32 128.45,147.43 133.96,123.08 C136.74,110.75 138.75,99.79 138.41,98.73 C137.70,96.48 131.22,93.38 125.21,92.42 C113.97,90.62 124.78,90.00 167.39,90.00 L 213.78 90.00 L 214.34 92.25 C215.96,98.77 216.09,113.10 214.62,122.74 C208.30,164.09 180.43,195.97 140.50,207.51 ZM 423.19 181.39 C403.91,188.27 386.00,180.04 384.29,163.52 C383.63,157.16 384.19,154.03 391.98,120.00 C395.19,105.97 398.34,91.91 398.98,88.75 L 400.14 83.00 L 419.07 83.00 C430.42,83.00 438.00,83.38 438.00,83.95 C438.00,84.48 435.33,96.29 432.07,110.20 C422.84,149.57 422.74,150.82 428.45,154.56 C431.53,156.58 438.86,155.83 441.82,153.20 C443.80,151.43 443.81,151.38 452.53,109.50 C455.04,97.40 457.52,86.49 458.03,85.25 C458.94,83.03 459.21,83.00 477.48,83.00 C492.94,83.00 496.00,83.24 496.00,84.44 C496.00,85.24 493.06,98.85 489.47,114.69 C485.89,130.54 481.13,151.60 478.90,161.50 C476.67,171.40 474.49,180.18 474.07,181.00 C473.43,182.22 470.30,182.55 457.39,182.79 C437.00,183.15 436.80,183.10 437.62,177.98 C437.97,175.79 437.94,174.00 437.56,174.00 C437.18,174.00 435.43,175.08 433.68,176.39 C431.93,177.70 427.21,179.95 423.19,181.39 ZM 640.14 182.04 C632.14,184.51 623.95,184.47 617.50,181.93 C609.16,178.64 604.74,173.55 602.94,165.14 C601.70,159.37 601.73,159.16 608.72,128.00 C611.24,116.72 614.49,102.10 615.92,95.50 L 618.53 83.50 L 636.48 83.23 C646.36,83.08 654.95,83.15 655.58,83.39 C656.38,83.70 654.78,92.18 650.41,110.84 C643.03,142.36 642.30,146.89 643.94,150.86 C647.25,158.84 660.65,157.03 662.86,148.30 C663.39,146.21 666.68,130.77 670.16,114.00 L 676.50 83.50 L 695.75 83.23 C706.34,83.08 715.00,83.28 715.00,83.66 C715.00,84.05 714.34,87.10 713.52,90.44 C712.71,93.77 708.43,112.47 704.01,132.00 C693.01,180.62 692.97,180.78 691.52,181.98 C690.69,182.67 684.24,182.95 673.37,182.77 L 656.50 182.50 L 656.59 178.25 C656.63,175.91 656.54,174.00 656.37,174.00 C656.21,174.00 653.92,175.37 651.28,177.04 C648.65,178.71 643.64,180.96 640.14,182.04 ZM 71.45 142.17 C64.55,170.40 58.54,193.86 58.10,194.30 C57.65,194.75 55.09,193.46 52.40,191.44 C34.65,178.14 20.48,158.03 14.64,137.89 C10.35,123.08 9.07,103.32 11.69,92.25 L 12.22 90.00 L 48.11 90.00 C67.85,90.00 84.00,90.19 84.00,90.42 C84.00,90.65 78.35,113.94 71.45,142.17 ZM 747.51 161.00 L 742.46 182.50 L 724.37 182.77 C710.67,182.98 706.03,182.74 705.25,181.77 C704.52,180.87 707.31,166.71 714.86,133.00 C720.71,106.88 725.86,84.94 726.31,84.25 C726.91,83.32 732.02,83.00 746.14,83.00 L 765.16 83.00 L 764.45 86.25 C764.06,88.04 762.90,92.16 761.86,95.41 C760.83,98.66 760.16,101.49 760.37,101.70 C760.58,101.92 761.91,100.12 763.32,97.71 C769.28,87.54 778.50,82.06 789.68,82.02 L 790.22 82.02 C794.45,82.01 797.02,82.00 798.13,83.26 C799.83,85.21 798.12,90.16 793.76,102.72 L 793.39 103.77 C789.82,114.07 786.55,122.85 786.12,123.28 C785.69,123.71 784.09,123.07 782.56,121.87 C779.67,119.60 772.00,118.28 767.79,119.34 C763.97,120.30 757.35,127.72 754.87,133.82 C753.60,136.94 750.29,149.18 747.51,161.00 ZM 194.69 47.42 C194.23,48.81 31.00,49.47 31.00,48.08 C31.00,46.78 35.49,41.36 41.30,35.66 C52.63,24.55 68.71,15.18 84.72,10.37 C96.53,6.82 120.33,5.87 133.01,8.44 C149.09,11.70 162.28,17.58 174.89,27.10 C183.66,33.72 195.28,45.65 194.69,47.42 ZM 834.51 156.83 C837.70,159.34 841.65,159.59 846.44,157.59 C847.32,157.22 847.96,157.03 848.51,156.67 C850.39,155.44 850.98,152.25 855.44,133.12 C857.93,122.47 860.54,113.06 861.23,112.22 C861.93,111.38 864.08,109.97 866.00,109.10 L 869.50 107.50 L 861.26 107.21 C856.72,107.05 851.18,107.41 848.95,108.01 C840.74,110.22 833.45,119.76 830.54,132.09 C827.67,144.28 828.98,152.48 834.51,156.83 ZM 539.59 157.50 C541.19,158.34 543.49,158.80 544.71,158.51 C548.64,157.57 551.56,156.24 552.70,154.85 C553.32,154.11 555.72,144.50 558.03,133.50 C560.35,122.44 562.92,112.72 563.77,111.75 C564.62,110.78 567.16,109.43 569.41,108.75 C573.36,107.54 573.15,107.49 563.29,107.22 C554.10,106.96 552.58,107.18 548.23,109.39 C540.29,113.41 534.97,122.90 532.99,136.57 C531.32,148.15 533.20,154.11 539.59,157.50 ZM 933.00 97.42 C932.71,100.88 931.98,103.52 931.25,103.76 C930.30,104.07 930.00,101.60 930.00,93.58 C930.00,83.14 930.03,83.00 932.35,83.00 C934.39,83.00 934.97,83.90 936.71,89.75 C937.82,93.46 939.11,96.42 939.59,96.32 C940.06,96.23 941.39,93.30 942.55,89.82 C944.19,84.92 945.15,83.43 946.83,83.18 C948.94,82.87 949.00,83.15 949.00,93.51 C949.00,101.59 948.70,104.07 947.75,103.76 C947.03,103.52 946.27,100.85 945.96,97.42 C945.38,91.11 944.85,91.39 942.54,99.23 C940.72,105.41 938.57,105.26 936.47,98.80 C933.93,91.03 933.55,90.88 933.00,97.42 ZM 920.79 94.67 C920.59,100.50 920.09,103.47 919.25,103.75 C918.31,104.06 918.00,101.90 918.00,95.08 L 918.00 86.00 L 914.50 86.00 C912.06,86.00 911.00,85.55 911.00,84.50 C911.00,83.28 912.61,83.00 919.50,83.00 C926.39,83.00 928.00,83.28 928.00,84.50 C928.00,85.54 926.95,86.00 924.54,86.00 L 921.08 86.00 Z" fill="rgb(2,167,142)"/>
<path d="M 187.06 90.00 L 167.39 90.00 C130.68,90.00 117.57,90.46 121.83,91.74 C119.34,91.30 117.01,91.02 115.31,91.01 C113.00,91.01 110.90,90.65 110.64,90.22 C110.32,89.71 156.35,89.71 187.06,90.00 ZM 766.25 93.41 C765.20,94.74 764.23,96.17 763.32,97.71 C761.91,100.12 760.58,101.92 760.37,101.70 C760.16,101.49 760.83,98.66 761.86,95.41 C762.69,92.80 763.61,89.62 764.14,87.55 C763.94,88.32 763.73,89.15 763.50,90.00 C763.36,90.54 763.22,91.03 763.10,91.48 C762.19,94.85 761.95,95.73 762.23,95.95 C762.33,96.02 762.49,96.02 762.71,96.01 C762.79,96.00 762.88,96.00 762.98,96.00 C763.37,96.00 764.69,94.94 766.25,93.41 ZM 193.53 172.25 C204.42,158.38 211.75,141.54 214.62,122.74 C215.41,117.58 215.74,111.08 215.62,105.16 C216.30,121.17 212.18,140.02 204.60,155.00 C201.50,161.14 197.78,166.91 193.53,172.25 ZM 796.32 82.32 C794.92,82.00 792.91,82.01 790.22,82.02 L 789.68 82.02 C783.72,82.04 778.31,83.61 773.67,86.61 C778.28,83.44 783.38,82.00 789.62,82.00 L 790.20 82.00 C792.90,82.00 794.92,82.00 796.32,82.32 ZM 125.29 92.43 C127.36,92.77 129.47,93.35 131.39,94.07 C129.58,93.48 127.45,92.91 125.29,92.43 ZM 764.99 83.80 C764.96,84.15 764.67,85.42 764.26,87.08 C764.33,86.76 764.40,86.49 764.45,86.25 ZM 137.86 97.82 C138.13,98.13 138.32,98.44 138.41,98.73 C138.42,98.74 138.42,98.75 138.42,98.76 C138.32,98.47 138.12,98.15 137.86,97.82 ZM 214.10 91.28 L 213.95 90.68 C213.99,90.78 214.04,90.99 214.10,91.28 Z" fill="rgb(158,227,216)"/>
<path d="M 0.00 110.00 L 0.00 0.00 L 480.00 0.00 L 960.00 0.00 L 960.00 110.00 L 960.00 220.00 L 480.00 220.00 L 0.00 220.00 L 0.00 110.00 ZM 140.50 207.51 C168.51,199.41 191.78,180.35 204.60,155.00 C212.88,138.64 217.02,117.68 215.32,100.82 C214.77,95.41 214.14,90.81 213.91,90.60 C213.10,89.84 110.17,89.46 110.64,90.22 C110.90,90.65 113.00,91.01 115.31,91.01 C120.40,91.03 131.04,93.45 134.98,95.49 C136.56,96.31 138.12,97.81 138.44,98.82 C138.76,99.83 136.74,110.75 133.96,123.08 C128.45,147.43 123.96,167.32 118.50,191.53 C113.66,213.00 113.27,211.42 123.25,210.70 C127.79,210.38 135.55,208.94 140.50,207.51 ZM 71.45 142.17 C78.35,113.94 84.00,90.65 84.00,90.42 C84.00,90.19 67.85,90.00 48.11,90.00 L 12.22 90.00 L 11.69 92.25 C9.07,103.32 10.35,123.08 14.64,137.89 C20.48,158.03 34.65,178.14 52.40,191.44 C55.09,193.46 57.65,194.75 58.10,194.30 C58.54,193.86 64.55,170.40 71.45,142.17 ZM 423.19 181.39 C427.21,179.95 431.93,177.70 433.68,176.39 C435.43,175.08 437.18,174.00 437.56,174.00 C437.94,174.00 437.97,175.79 437.62,177.98 C436.80,183.10 437.00,183.15 457.39,182.79 C470.30,182.55 473.43,182.22 474.07,181.00 C474.49,180.18 476.67,171.40 478.90,161.50 C481.13,151.60 485.89,130.54 489.47,114.69 C493.06,98.85 496.00,85.24 496.00,84.44 C496.00,83.24 492.94,83.00 477.48,83.00 C459.21,83.00 458.94,83.03 458.03,85.25 C457.52,86.49 455.04,97.40 452.53,109.50 C443.81,151.38 443.80,151.43 441.82,153.20 C438.86,155.83 431.53,156.58 428.45,154.56 C422.74,150.82 422.84,149.57 432.07,110.20 C435.33,96.29 438.00,84.48 438.00,83.95 C438.00,83.38 430.42,83.00 419.07,83.00 L 400.14 83.00 L 398.98 88.75 C398.34,91.91 395.19,105.97 391.98,120.00 C384.19,154.03 383.63,157.16 384.29,163.52 C386.00,180.04 403.91,188.27 423.19,181.39 ZM 534.57 182.52 C537.28,181.70 541.53,179.68 544.00,178.02 C549.54,174.31 550.23,174.28 549.86,177.75 C549.33,182.84 549.87,183.00 567.44,183.00 C579.30,183.00 584.02,182.66 584.73,181.75 C586.15,179.93 618.01,40.63 617.19,39.82 C616.41,39.04 580.22,43.45 579.23,44.44 C578.87,44.80 576.71,53.50 574.42,63.79 L 570.27 82.50 L 554.88 83.13 C537.14,83.85 529.91,85.67 520.43,91.81 C509.17,99.09 500.80,111.09 495.86,127.00 C493.94,133.16 493.53,136.73 493.53,147.00 C493.53,158.67 493.72,159.92 496.42,165.80 C503.21,180.57 518.61,187.32 534.57,182.52 ZM 640.14 182.04 C643.64,180.96 648.65,178.71 651.28,177.04 C653.92,175.37 656.21,174.00 656.37,174.00 C656.54,174.00 656.63,175.91 656.59,178.25 L 656.50 182.50 L 673.37 182.77 C684.24,182.95 690.69,182.67 691.52,181.98 C692.97,180.78 693.01,180.62 704.01,132.00 C708.43,112.47 712.71,93.77 713.52,90.44 C714.34,87.10 715.00,84.05 715.00,83.66 C715.00,83.28 706.34,83.08 695.75,83.23 L 676.50 83.50 L 670.16 114.00 C666.68,130.77 663.39,146.21 662.86,148.30 C660.65,157.03 647.25,158.84 643.94,150.86 C642.30,146.89 643.03,142.36 650.41,110.84 C654.78,92.18 656.38,83.70 655.58,83.39 C654.95,83.15 646.36,83.08 636.48,83.23 L 618.53 83.50 L 615.92 95.50 C614.49,102.10 611.24,116.72 608.72,128.00 C601.73,159.16 601.70,159.37 602.94,165.14 C604.74,173.55 609.16,178.64 617.50,181.93 C623.95,184.47 632.14,184.51 640.14,182.04 ZM 830.36 182.42 C833.74,181.56 838.56,179.53 841.09,177.92 C843.61,176.32 846.02,175.00 846.45,175.00 C846.87,175.00 846.94,176.52 846.59,178.38 C846.10,180.97 846.33,181.91 847.56,182.38 C848.44,182.72 856.05,183.00 864.46,183.00 C875.61,183.00 880.04,182.66 880.81,181.73 C881.39,181.03 883.87,171.69 886.31,160.98 C888.76,150.27 893.77,128.52 897.44,112.65 C901.12,96.78 903.90,83.57 903.64,83.30 C902.75,82.42 850.64,83.06 843.71,84.04 C822.01,87.11 805.53,99.10 796.42,118.46 C791.10,129.75 789.66,137.03 790.15,150.24 C790.50,159.52 790.88,161.32 793.81,167.27 C800.68,181.22 813.81,186.67 830.36,182.42 ZM 285.57 181.89 C286.24,180.80 289.45,164.79 296.58,127.00 C300.59,105.73 300.91,104.50 302.03,105.65 C302.48,106.12 310.56,122.70 319.99,142.50 C329.41,162.30 337.79,179.53 338.60,180.78 C340.04,182.98 340.50,183.05 353.18,182.78 C363.60,182.56 366.45,182.19 367.09,181.00 C367.53,180.18 369.70,171.40 371.91,161.50 C374.13,151.60 380.45,123.56 385.97,99.18 C391.49,74.81 396.00,54.00 396.00,52.93 C396.00,51.11 395.15,51.00 380.58,51.00 L 365.16 51.00 L 363.65 57.75 C362.82,61.46 359.59,76.65 356.47,91.50 C353.36,106.35 350.49,118.84 350.09,119.26 C349.70,119.68 342.67,105.96 334.47,88.76 C326.27,71.57 318.84,56.15 317.95,54.50 L 316.33 51.50 L 298.91 51.50 L 281.50 51.50 L 279.39 61.50 C274.00,87.13 272.26,94.92 256.51,164.41 C254.53,173.16 253.14,180.92 253.42,181.66 C254.10,183.41 284.50,183.63 285.57,181.89 ZM 747.51 161.00 C750.29,149.18 753.60,136.94 754.87,133.82 C757.35,127.72 763.97,120.30 767.79,119.34 C772.00,118.28 779.67,119.60 782.56,121.87 C784.09,123.07 785.69,123.71 786.12,123.28 C786.55,122.85 789.82,114.07 793.39,103.77 C801.08,81.62 801.14,82.00 789.62,82.00 C780.75,82.00 774.18,84.91 768.06,91.55 C765.81,94.00 763.52,96.00 762.98,96.00 C761.78,96.00 761.73,96.58 763.50,90.00 C764.31,86.97 764.98,84.16 764.99,83.75 C764.99,83.34 756.48,83.00 746.06,83.00 C732.00,83.00 726.91,83.32 726.31,84.25 C725.86,84.94 720.71,106.88 714.86,133.00 C707.31,166.71 704.52,180.87 705.25,181.77 C706.03,182.74 710.67,182.98 724.37,182.77 L 742.46 182.50 L 747.51 161.00 ZM 920.79 94.67 L 921.08 86.00 L 924.54 86.00 C926.95,86.00 928.00,85.54 928.00,84.50 C928.00,83.28 926.39,83.00 919.50,83.00 C912.61,83.00 911.00,83.28 911.00,84.50 C911.00,85.55 912.06,86.00 914.50,86.00 L 918.00 86.00 L 918.00 95.08 C918.00,101.90 918.31,104.06 919.25,103.75 C920.09,103.47 920.59,100.50 920.79,94.67 ZM 933.00 97.42 C933.55,90.88 933.93,91.03 936.47,98.80 C938.57,105.26 940.72,105.41 942.54,99.23 C944.85,91.39 945.38,91.11 945.96,97.42 C946.27,100.85 947.03,103.52 947.75,103.76 C948.70,104.07 949.00,101.59 949.00,93.51 C949.00,83.15 948.94,82.87 946.83,83.18 C945.15,83.43 944.19,84.92 942.55,89.82 C941.39,93.30 940.06,96.23 939.59,96.32 C939.11,96.42 937.82,93.46 936.71,89.75 C934.97,83.90 934.39,83.00 932.35,83.00 C930.03,83.00 930.00,83.14 930.00,93.58 C930.00,101.60 930.30,104.07 931.25,103.76 C931.98,103.52 932.71,100.88 933.00,97.42 ZM 194.69 47.42 C195.28,45.65 183.66,33.72 174.89,27.10 C162.28,17.58 149.09,11.70 133.01,8.44 C120.33,5.87 96.53,6.82 84.72,10.37 C68.71,15.18 52.63,24.55 41.30,35.66 C35.49,41.36 31.00,46.78 31.00,48.08 C31.00,49.47 194.23,48.81 194.69,47.42 ZM 539.59 157.50 C533.20,154.11 531.32,148.15 532.99,136.57 C534.97,122.90 540.29,113.41 548.23,109.39 C552.58,107.18 554.10,106.96 563.29,107.22 C573.15,107.49 573.36,107.54 569.41,108.75 C567.16,109.43 564.62,110.78 563.77,111.75 C562.92,112.72 560.35,122.44 558.03,133.50 C555.72,144.50 553.32,154.11 552.70,154.85 C551.56,156.24 548.64,157.57 544.71,158.51 C543.49,158.80 541.19,158.34 539.59,157.50 ZM 834.51 156.83 C828.98,152.48 827.67,144.28 830.54,132.09 C833.45,119.76 840.74,110.22 848.95,108.01 C851.18,107.41 856.72,107.05 861.26,107.21 L 869.50 107.50 L 866.00 109.10 C864.08,109.97 861.93,111.38 861.23,112.22 C860.54,113.06 857.93,122.47 855.44,133.12 C849.70,157.76 850.36,155.95 846.44,157.59 C841.65,159.59 837.70,159.34 834.51,156.83 Z" fill="rgb(253,254,254)"/>
</g>
</svg>