<svg width="142" height="59" xmlns="http://www.w3.org/2000/svg" fill="none">
 <g>
  <title>Saint Gobain logo</title>
  <g id="svg_14">
   <path id="svg_1" fill="white" d="m5.90919,50.95262c-1.9659,-0.596 -2.8238,-0.9708 -2.8238,-2.095c0,-1.0028 1.3368,-1.3597 2.5021,-1.3597c0.9958,-0.0037 1.9732,0.268 2.8237,0.7852c0.0853,0.0571 0.1819,0.0952 0.2832,0.1117c0.1014,0.0166 0.2051,0.0111 0.3041,-0.016c0.0991,-0.0271 0.1911,-0.0752 0.2699,-0.1409c0.0787,-0.0658 0.1424,-0.1478 0.1865,-0.2404l0.336,-0.6638c0.0822,-0.1588 0.1018,-0.3426 0.0548,-0.515c-0.047,-0.1725 -0.1571,-0.3211 -0.3085,-0.4164c-1.1747,-0.724 -2.5265,-1.1105 -3.9068,-1.1171c-2.8595,0 -4.7611,1.4597 -4.7611,3.6331c0,2.823 2.3877,3.5368 4.2893,4.1114c2.0088,0.5995 2.8845,0.9885 2.8595,2.1806c-0.0251,1.192 -1.4298,1.6238 -2.7309,1.6238c-1.2935,-0.063 -2.5245,-0.5741 -3.4814,-1.4454c-0.0787,-0.0778 -0.1737,-0.1373 -0.2781,-0.1743c-0.1044,-0.0371 -0.2157,-0.0506 -0.326,-0.0398c-0.1117,0.0129 -0.2188,0.0519 -0.3126,0.1139c-0.0938,0.062 -0.1716,0.1453 -0.2271,0.2429l-0.386,0.6496c-0.0845,0.1385 -0.1192,0.3017 -0.0984,0.4626c0.0207,0.1609 0.0958,0.3099 0.2128,0.4225c1.3169,1.2525 3.0603,1.9602 4.879,1.9807c2.9846,0 5.0041,-1.5453 5.0041,-3.8401c0.0214,-2.9122 -2.4056,-3.6474 -4.3536,-4.2363"/>
   <path id="svg_2" fill="white" d="m19.07159,45.73472c-0.0571,-0.1269 -0.1501,-0.2344 -0.2676,-0.3092c-0.1175,-0.0748 -0.2543,-0.1137 -0.3936,-0.1119l-0.7899,0c-0.1392,-0.0008 -0.2755,0.039 -0.3923,0.1144c-0.1168,0.0754 -0.2091,0.1833 -0.2654,0.3103l-5.5653,12.2484c-0.0526,0.11 -0.076,0.2316 -0.0681,0.3532c0.0079,0.1216 0.0469,0.2392 0.1132,0.3415c0.0663,0.1024 0.1577,0.1861 0.2656,0.2431c0.1078,0.0571 0.2285,0.0856 0.3505,0.0829l0.8078,0c0.1392,0.0008 0.2755,-0.039 0.3923,-0.1144c0.1168,-0.0755 0.2091,-0.1833 0.2654,-0.3103l1.3869,-3.0621l6.2444,0l1.4047,3.0656c0.0569,0.1264 0.1494,0.2335 0.2661,0.3083c0.1168,0.0747 0.2529,0.114 0.3916,0.1129l0.8078,0c0.1218,0.0012 0.2418,-0.0286 0.3488,-0.0867c0.107,-0.0581 0.1973,-0.1425 0.2624,-0.2452c0.0648,-0.1024 0.1033,-0.2192 0.112,-0.3399c0.0088,-0.1208 -0.0125,-0.2419 -0.0619,-0.3525l-5.6154,-12.2484zm-3.1883,7.6017l2.1446,-4.7038l2.1447,4.7038l-4.2893,0z"/>
   <path id="svg_3" fill="white" d="m28.32209,45.31352l-0.7363,0c-0.1896,0 -0.3715,0.0752 -0.5055,0.2091c-0.1341,0.1338 -0.2094,0.3154 -0.2094,0.5047l0,12.2484c0,0.1893 0.0753,0.3709 0.2094,0.5047c0.134,0.1339 0.3159,0.2091 0.5055,0.2091l0.7363,0c0.1896,0 0.3714,-0.0752 0.5055,-0.2091c0.134,-0.1338 0.2094,-0.3154 0.2094,-0.5047l0,-12.2377c0,-0.1893 -0.0754,-0.3709 -0.2094,-0.5047c-0.1341,-0.1339 -0.3159,-0.2091 -0.5055,-0.2091"/>
   <path id="svg_4" fill="white" d="m43.62509,45.31382l-0.7149,0c-0.1896,0 -0.3714,0.0753 -0.5055,0.2091c-0.1341,0.1339 -0.2094,0.3154 -0.2094,0.5047l0,8.9222l-6.8842,-9.3469c-0.0669,-0.0925 -0.155,-0.1678 -0.257,-0.2193c-0.102,-0.0515 -0.2149,-0.0779 -0.3292,-0.0769l-0.8579,0c-0.1896,0 -0.3714,0.0752 -0.5055,0.2091c-0.134,0.1338 -0.2094,0.3154 -0.2094,0.5047l0,12.2555c0,0.1893 0.0754,0.3709 0.2094,0.5047c0.1341,0.1339 0.3159,0.2091 0.5055,0.2091l0.7364,0c0.1896,0 0.3714,-0.0752 0.5054,-0.2091c0.1341,-0.1338 0.2094,-0.3154 0.2094,-0.5047l0,-8.9222l6.8664,9.3469c0.0672,0.0919 0.1556,0.1664 0.2575,0.2174c0.102,0.0509 0.2147,0.0767 0.3287,0.0753l0.8579,0c0.1895,0 0.3714,-0.0752 0.5054,-0.2091c0.1341,-0.1339 0.2094,-0.3154 0.2094,-0.5047l0,-12.2413c0,-0.1893 -0.0753,-0.3708 -0.2094,-0.5047c-0.134,-0.1338 -0.3159,-0.209 -0.5054,-0.209"/>
   <path id="svg_5" fill="white" d="m56.27929,45.31352l-9.0217,0c-0.1896,0 -0.3714,0.0752 -0.5054,0.2091c-0.1341,0.1338 -0.2094,0.3154 -0.2094,0.5047l0,0.7138c0,0.1893 0.0753,0.3708 0.2094,0.5047c0.134,0.1338 0.3158,0.209 0.5054,0.209l3.4171,0l0,10.8209c0,0.1893 0.0754,0.3709 0.2094,0.5047c0.1341,0.1339 0.3159,0.2091 0.5055,0.2091l0.7363,0c0.1896,0 0.3715,-0.0752 0.5055,-0.2091c0.1341,-0.1338 0.2094,-0.3154 0.2094,-0.5047l0,-10.7959l3.4171,0c0.1896,0 0.3714,-0.0752 0.5055,-0.209c0.1341,-0.1339 0.2094,-0.3154 0.2094,-0.5047l0,-0.7138c0,-0.1893 -0.0753,-0.3709 -0.2094,-0.5047c-0.1341,-0.1339 -0.3159,-0.2091 -0.5055,-0.2091"/>
   <path id="svg_6" fill="white" d="m61.66989,51.99132l-3.9318,0c-0.1896,0 -0.3714,0.0752 -0.5055,0.209c-0.134,0.1339 -0.2094,0.3154 -0.2094,0.5047l0,0.596c0,0.1893 0.0754,0.3709 0.2094,0.5048c0.1341,0.1338 0.3159,0.209 0.5055,0.209l3.9318,0c0.1896,0 0.3714,-0.0752 0.5055,-0.209c0.1341,-0.1339 0.2094,-0.3155 0.2094,-0.5048l0,-0.596c0,-0.1893 -0.0753,-0.3708 -0.2094,-0.5047c-0.1341,-0.1338 -0.3159,-0.209 -0.5055,-0.209z"/>
   <path id="svg_7" fill="white" d="m76.91239,51.55202l-2.8595,0c-0.1896,0 -0.3714,0.0752 -0.5055,0.209c-0.134,0.1339 -0.2093,0.3154 -0.2093,0.5047l0,0.7352c0,0.1893 0.0753,0.3709 0.2093,0.5047c0.1341,0.1339 0.3159,0.2091 0.5055,0.2091l1.4655,0l0,2.2377c-0.8614,0.588 -1.8804,0.9027 -2.9238,0.9029c-1.2786,0.0229 -2.5141,-0.4618 -3.435,-1.3478c-0.9208,-0.886 -1.4518,-2.1008 -1.4762,-3.3774c0,-2.5946 2.2018,-4.7073 4.9112,-4.7073c1.2478,-0.0023 2.4536,0.4494 3.392,1.2705c0.0731,0.0661 0.1591,0.1164 0.2526,0.1477c0.0935,0.0314 0.1925,0.043 0.2908,0.0343c0.0961,-0.0032 0.1906,-0.0256 0.2778,-0.0661c0.0872,-0.0405 0.1653,-0.0981 0.2297,-0.1694l0.4361,-0.5425c0.1202,-0.1444 0.1786,-0.3302 0.1625,-0.5172c-0.0161,-0.1871 -0.1053,-0.3603 -0.2483,-0.4821c-1.328,-1.1558 -3.0316,-1.79 -4.7932,-1.7844c-3.9318,0 -7.0987,3.0763 -7.0987,6.8558c0.0254,1.8461 0.7834,3.6067 2.1076,4.8954c1.3242,1.2887 3.1063,2.0002 4.9553,1.9782c1.7693,-0.0057 3.4792,-0.6381 4.8254,-1.7844c0.0789,-0.0674 0.1422,-0.1512 0.1854,-0.2455c0.0432,-0.0943 0.0653,-0.1968 0.0648,-0.3005l0,-4.4362c0,-0.1893 -0.0753,-0.3708 -0.2093,-0.5047c-0.1341,-0.1338 -0.316,-0.209 -0.5055,-0.209"/>
   <path id="svg_8" fill="white" d="m87.19829,45.29592c-3.9,0 -7.077,3.0764 -7.077,6.8559c0,3.7794 3.177,6.8736 7.077,6.8736c3.899,0 7.081,-3.0799 7.081,-6.8736c0,-3.7938 -3.178,-6.8559 -7.081,-6.8559zm0,11.5632c-0.923,-0.0329 -1.816,-0.3361 -2.567,-0.8718c-0.752,-0.5358 -1.329,-1.2804 -1.66,-2.1412c-0.331,-0.8609 -0.401,-1.7998 -0.201,-2.7001c0.199,-0.9002 0.66,-1.722 1.323,-2.3629c0.664,-0.641 1.502,-1.0728 2.41,-1.2418c0.908,-0.169 1.845,-0.0676 2.696,0.2914c0.851,0.3591 1.577,0.96 2.088,1.728c0.511,0.7679 0.784,1.669 0.786,2.5911c-0.025,1.2674 -0.552,2.4733 -1.466,3.3535c-0.914,0.8802 -2.14,1.3632 -3.409,1.3431"/>
   <path id="svg_9" fill="white" d="m105.89129,51.77322c0.379,-0.3384 0.68,-0.7563 0.878,-1.224c0.199,-0.4677 0.292,-0.9735 0.273,-1.4812c0,-2.3162 -1.748,-3.7545 -4.554,-3.7545l-5.004,0c-0.19,0 -0.372,0.0752 -0.506,0.2091c-0.134,0.1338 -0.209,0.3154 -0.209,0.5047l0,12.2484c0,0.1893 0.075,0.3709 0.209,0.5047c0.134,0.1339 0.316,0.2091 0.506,0.2091l5.04,0c3.217,0 5.129,-1.5025 5.129,-4.0186c0.024,-0.6444 -0.127,-1.2833 -0.437,-1.8489c-0.31,-0.5655 -0.768,-1.0366 -1.325,-1.3631l0,0.0143zm-3.421,-0.9208l-3.538,0l0,-3.3868l3.538,0c1.072,0 2.384,0.289 2.384,1.6773c0,1.1349 -0.8,1.7095 -2.384,1.7095zm-3.538,2.1663l3.538,0c1.119,0 2.995,0.2427 2.995,1.8701c0,1.6274 -1.619,1.9593 -2.995,1.9593l-3.538,0l0,-3.8294z"/>
   <path id="svg_10" fill="white" d="m116.55629,45.73472c-0.057,-0.1269 -0.15,-0.2344 -0.268,-0.3092c-0.117,-0.0748 -0.254,-0.1137 -0.394,-0.1119l-0.789,0c-0.14,-0.0015 -0.277,0.0379 -0.395,0.1134c-0.117,0.0755 -0.21,0.1837 -0.267,0.3113l-5.561,12.2484c-0.053,0.11 -0.076,0.2316 -0.069,0.3532c0.008,0.1216 0.047,0.2392 0.114,0.3415c0.066,0.1024 0.157,0.1861 0.265,0.2431c0.108,0.0571 0.229,0.0856 0.351,0.0829l0.808,0c0.139,0.0015 0.276,-0.038 0.394,-0.1135c0.117,-0.0754 0.21,-0.1837 0.267,-0.3112l1.387,-3.0621l6.241,0l1.404,3.0656c0.057,0.1264 0.15,0.2335 0.266,0.3083c0.117,0.0747 0.253,0.114 0.392,0.1129l0.808,0c0.122,0.0012 0.242,-0.0286 0.349,-0.0867c0.107,-0.0581 0.197,-0.1425 0.262,-0.2452c0.065,-0.1024 0.103,-0.2192 0.112,-0.3399c0.009,-0.1208 -0.013,-0.2419 -0.062,-0.3525l-5.615,-12.2484zm-3.189,7.6017l2.127,-4.7038l2.145,4.7038l-4.272,0z"/>
   <path id="svg_11" fill="white" d="m125.81029,45.31352l-0.736,0c-0.19,0 -0.372,0.0752 -0.506,0.2091c-0.134,0.1338 -0.209,0.3154 -0.209,0.5047l0,12.2484c0,0.1893 0.075,0.3709 0.209,0.5047c0.134,0.1339 0.316,0.2091 0.506,0.2091l0.736,0c0.19,0 0.372,-0.0752 0.506,-0.2091c0.134,-0.1338 0.209,-0.3154 0.209,-0.5047l0,-12.2377c0,-0.1893 -0.075,-0.3709 -0.209,-0.5047c-0.134,-0.1339 -0.316,-0.2091 -0.506,-0.2091"/>
   <path id="svg_12" fill="white" d="m141.11329,45.31352l-0.715,0c-0.189,0 -0.371,0.0752 -0.505,0.2091c-0.134,0.1338 -0.21,0.3154 -0.21,0.5047l0,8.9222l-6.884,-9.3398c-0.066,-0.092 -0.154,-0.1669 -0.255,-0.2185c-0.102,-0.0515 -0.214,-0.0781 -0.328,-0.0777l-0.861,0c-0.19,0 -0.371,0.0752 -0.505,0.2091c-0.135,0.1338 -0.21,0.3154 -0.21,0.5047l0,12.2484c0,0.1893 0.075,0.3708 0.21,0.5047c0.134,0.1339 0.315,0.2091 0.505,0.2091l0.729,0c0.19,0 0.372,-0.0752 0.506,-0.2091c0.134,-0.1339 0.209,-0.3154 0.209,-0.5047l0,-8.9222l6.87,9.3469c0.067,0.0914 0.155,0.1656 0.256,0.2165c0.101,0.0509 0.213,0.077 0.327,0.0761l0.861,0c0.19,0 0.371,-0.0752 0.505,-0.209c0.135,-0.1339 0.21,-0.3154 0.21,-0.5047l0,-12.2413c0,-0.1893 -0.075,-0.3708 -0.21,-0.5047c-0.134,-0.1339 -0.315,-0.2091 -0.505,-0.2091"/>
   <path id="svg_13" fill="white" d="m122.86229,38.09762l-8.735,0l-0.061,-0.0607l-7.685,-7.5981c-0.156,-0.1517 -0.352,-0.2545 -0.566,-0.2958c-0.213,-0.0412 -0.434,-0.019 -0.635,0.0638c-0.202,0.083 -0.374,0.2241 -0.495,0.4052c-0.121,0.1812 -0.185,0.3942 -0.184,0.612l0,6.9022l-2.284,0l0,-17.07c-0.002,-0.151 -0.035,-0.3 -0.097,-0.438c-0.061,-0.1381 -0.15,-0.2622 -0.261,-0.365l-6.373,-6.0171c-0.205,-0.1931 -0.476,-0.3003 -0.758,-0.2998l-3.191,0c-0.293,0 -0.574,0.1162 -0.781,0.323c-0.208,0.2068 -0.324,0.4873 -0.324,0.7798l0,23.0978l-2.266,0l0,-37.0807c0.001,-0.2196 -0.064,-0.4346 -0.186,-0.6172c-0.122,-0.1825 -0.297,-0.3243 -0.5,-0.407c-0.204,-0.0803 -0.427,-0.0998 -0.641,-0.056c-0.215,0.0437 -0.412,0.1487 -0.568,0.3022l-10.5689,10.7066c-0.2042,0.2062 -0.3185,0.4846 -0.3181,0.7745l0,8.2727l-4.325,-3.212c-0.1984,-0.1422 -0.4374,-0.2165 -0.6815,-0.212c-0.2441,0.0045 -0.4802,0.0876 -0.6732,0.2369l-9.8224,7.8837c-0.1285,0.1035 -0.2322,0.2346 -0.3033,0.3834c-0.0712,0.1489 -0.108,0.3118 -0.1077,0.4767l0,12.566l-2.234,0l0,-6.945c0,-2.4304 -1.6764,-5.0179 -4.7825,-5.0179c-3.1061,0 -4.7825,2.5982 -4.7825,5.0429l0,6.9022l-2.2554,0l0,-4.7002c0,-1.9023 -1.3154,-3.9258 -3.7496,-3.9258c-2.4341,0 -3.7459,2.0235 -3.7459,3.9258l0,4.6966l-2.2447,0l0,-0.1999c0,-0.9457 0,-2.1591 0,-2.6445c0,-1.6167 -1.5298,-3.0371 -3.2741,-3.0371c-1.7443,0 -3.2741,1.4275 -3.2741,3.0228l0,2.8551l-9.8796,0c-0.2929,0 -0.5738,0.1162 -0.781,0.323c-0.2071,0.2068 -0.3235,0.4873 -0.3235,0.7798c0,0.2925 0.1164,0.573 0.3235,0.7798c0.2072,0.2068 0.4881,0.323 0.781,0.323l10.9662,0c0.2929,0 0.5738,-0.1162 0.781,-0.323c0.2071,-0.2068 0.3235,-0.4873 0.3235,-0.7798l0,-3.7616c0.0264,-0.2696 0.1495,-0.5206 0.3465,-0.7068c0.197,-0.1862 0.4547,-0.2951 0.7258,-0.3067c0.2788,0.0061 0.5448,0.1179 0.744,0.3128c0.1992,0.1949 0.3165,0.4582 0.3283,0.7364c0,0.2819 0,3.7438 0,3.7438c0.0028,0.2919 0.1207,0.5709 0.3281,0.7766c0.2074,0.2058 0.4876,0.3217 0.7799,0.3226l4.4537,0c0.2926,-0.001 0.573,-0.1175 0.7799,-0.3241c0.207,-0.2066 0.3236,-0.4865 0.3246,-0.7787l0,-5.8066c0,-0.596 0.3217,-1.7237 1.5334,-1.7237c1.2117,0 1.537,1.1242 1.537,1.7202l0,5.803c0.0009,0.2921 0.1176,0.5721 0.3245,0.7787c0.2069,0.2066 0.4873,0.3231 0.7799,0.324l4.468,0c0.2923,-0.0018 0.5722,-0.1186 0.7789,-0.325c0.2067,-0.2064 0.3237,-0.4858 0.3256,-0.7777l0,-8.005c0,-0.9815 0.5397,-2.8337 2.5735,-2.8337c1.8873,0 2.5736,1.6809 2.5736,2.8087l0,8.0335c0.0009,0.2922 0.1176,0.5722 0.3245,0.7788c0.2069,0.2066 0.4873,0.3231 0.7799,0.324l4.443,0c0.2926,-0.0009 0.573,-0.1174 0.7799,-0.324c0.207,-0.2066 0.3236,-0.4866 0.3246,-0.7788l0,-13.1442l0.0786,-0.0606l8.6786,-6.9486l4.9648,3.7009l0,16.4525c0.0009,0.2928 0.1181,0.5733 0.3258,0.78c0.2077,0.2067 0.489,0.3228 0.7822,0.3228l4.4327,0c0.292,-0.0009 0.573,-0.1174 0.779,-0.324c0.207,-0.2066 0.324,-0.4866 0.325,-0.7788l0,-13.7009c-0.001,-0.1716 -0.041,-0.3407 -0.118,-0.4942c-0.077,-0.1535 -0.188,-0.2873 -0.325,-0.3909l-3.9892,-2.9729l0,-9.4682l0.0608,-0.0607l8.2964,-8.4082l0,35.496c0.001,0.2928 0.118,0.5733 0.325,0.78c0.208,0.2067 0.489,0.3228 0.783,0.3228l4.475,0c0.293,0 0.574,-0.1162 0.781,-0.323c0.207,-0.2068 0.323,-0.4873 0.323,-0.7798l0,-23.1013l1.648,0l0.061,0.0571l5.654,5.3533l0,17.7088c0.001,0.2928 0.119,0.5733 0.326,0.78c0.208,0.2067 0.489,0.3228 0.783,0.3227l4.493,0c0.292,-0.0009 0.573,-0.1174 0.779,-0.324c0.207,-0.2066 0.324,-0.4865 0.325,-0.7787l0,-5.3533l6.184,6.1063c0.102,0.1017 0.224,0.1821 0.357,0.2366c0.134,0.0546 0.277,0.0821 0.422,0.081l9.19,0c0.293,0 0.573,-0.1162 0.781,-0.323c0.207,-0.2068 0.323,-0.4873 0.323,-0.7797c0,-0.2925 -0.116,-0.573 -0.323,-0.7798c-0.208,-0.2068 -0.488,-0.323 -0.781,-0.323l-0.015,-0.0286zm-43.046,-12.0021l0,12.0414l-2.2195,0l0,-13.6974l2.2195,1.656z"/>
  </g>
 </g>
</svg>
