<?xml version="1.0" encoding="utf-8"?>
<!-- Generator: Adobe Illustrator 26.0.3, SVG Export Plug-In . SVG Version: 6.00 Build 0)  -->
<svg version="1.0" id="Calque_1" xmlns="http://www.w3.org/2000/svg" xmlns:xlink="http://www.w3.org/1999/xlink" x="0px" y="0px"
	 viewBox="0 0 956.8 633.5" style="enable-background:new 0 0 956.8 633.5;" xml:space="preserve">
<style type="text/css">
	.st0{fill:none;}
	.st1{fill:#FFEB00;}
</style>
<rect x="74" y="175" class="st0" width="808.8" height="283.5"/>
<g>
	<g>
		<path d="M283.2,343l-32.9-95.6c-1.6-4.6-7.5-5.8-10.6-2.1L222.2,266l16.1,46.8c1.4,4-1.5,8.1-5.7,8.1h-56.8l-17.7,20.9
			c-3.1,3.7-0.4,9.3,4.5,9.3h115C281.7,351.1,284.6,347,283.2,343z"/>
	</g>
	<path class="st1" d="M205.4,217.2l32.9,95.6c1.4,4-1.5,8.1-5.7,8.1H117.7c-4.8,0-7.5-5.7-4.5-9.3l81.6-96.5
		C197.9,211.4,203.9,212.6,205.4,217.2z"/>
</g>
<g>
	<path d="M532.1,402c-4.5-1.4-6.5-2.2-6.5-4.8c0-2.3,3.1-3.1,5.7-3.1c2.3,0,4.8,0.7,6.5,1.8c0.4,0.3,0.9,0.3,1.3,0.2
		c0.5-0.1,0.8-0.4,1.1-0.9l0.8-1.5c0.4-0.8,0.1-1.7-0.6-2.2c-2.4-1.6-5.9-2.6-9-2.6c-6.5,0-11,3.4-11,8.4c0,6.5,5.5,8.2,9.9,9.5
		c4.6,1.4,6.6,2.3,6.6,5c0,2.8-3.2,3.7-6.3,3.7c-2.9,0-6.1-1.6-8-3.3c-0.4-0.4-0.9-0.6-1.4-0.5c-0.5,0.1-1,0.4-1.2,0.8l-0.9,1.5
		c-0.4,0.7-0.3,1.5,0.3,2c2.9,2.8,7.2,4.6,11.2,4.6c6.9,0,11.5-3.6,11.5-8.8C542.2,405.1,536.6,403.4,532.1,402"/>
	<path d="M562.4,390c-0.3-0.6-0.9-1-1.5-1H559c-0.7,0-1.2,0.4-1.5,1l-12.8,28.2c-0.2,0.5-0.2,1.1,0.1,1.6c0.3,0.5,0.8,0.8,1.4,0.8
		h1.9c0.7,0,1.2-0.4,1.5-1l3.2-7.1h14.4l3.2,7.1c0.3,0.6,0.9,1,1.5,1h1.9c0.6,0,1.1-0.3,1.4-0.8c0.3-0.5,0.4-1.1,0.1-1.6L562.4,390z
		 M555,407.5l4.9-10.9l4.9,10.9H555z"/>
	<path d="M583.7,389H582c-0.9,0-1.7,0.8-1.7,1.7v28.2c0,0.9,0.8,1.7,1.7,1.7h1.7c0.9,0,1.7-0.8,1.7-1.7v-28.2
		C585.3,389.8,584.6,389,583.7,389"/>
	<path d="M618.9,389h-1.7c-0.9,0-1.7,0.8-1.7,1.7v20.6l-15.8-21.5c-0.3-0.4-0.8-0.7-1.3-0.7h-2c-0.9,0-1.7,0.8-1.7,1.7v28.2
		c0,0.9,0.8,1.7,1.7,1.7h1.7c0.9,0,1.7-0.8,1.7-1.7v-20.5l15.8,21.5c0.3,0.4,0.8,0.7,1.3,0.7h2c0.9,0,1.7-0.8,1.7-1.7v-28.2
		C620.5,389.8,619.8,389,618.9,389"/>
	<path d="M648,389h-20.8c-0.9,0-1.7,0.8-1.7,1.7v1.7c0,0.9,0.8,1.7,1.7,1.7h7.9v24.9c0,0.9,0.8,1.7,1.7,1.7h1.7
		c0.9,0,1.7-0.8,1.7-1.7V394h7.9c0.9,0,1.7-0.8,1.7-1.7v-1.7C649.7,389.8,648.9,389,648,389"/>
	<path d="M660.4,404.4h-9c-0.9,0-1.7,0.8-1.7,1.7v1.4c0,0.9,0.8,1.7,1.7,1.7h9c0.9,0,1.7-0.8,1.7-1.7v-1.4
		C662.1,405.1,661.3,404.4,660.4,404.4"/>
	<path d="M695.5,403.4H694c0,0,0,0,0,0h-5c-0.9,0-1.7,0.8-1.7,1.7v1.7c0,0.9,0.8,1.7,1.7,1.7h3.4v5.2c-2,1.3-4.3,2.1-6.7,2.1
		c-6.2,0-11.3-4.9-11.3-10.9c0-6,5.1-10.9,11.3-10.9c2.9,0,5.7,1.1,7.8,2.9c0.3,0.3,0.8,0.5,1.2,0.4s0.9-0.3,1.2-0.6l1-1.2
		c0.6-0.7,0.5-1.7-0.2-2.3c-3-2.7-7-4.1-11-4.1c-9,0-16.3,7.1-16.3,15.8c0,8.7,7.3,15.8,16.2,15.8c4,0,8.1-1.5,11.1-4.1
		c0.4-0.3,0.6-0.8,0.6-1.3V405C697.2,404.1,696.4,403.4,695.5,403.4"/>
	<path d="M719.2,389c-9,0-16.3,7.1-16.3,15.8c0,8.7,7.3,15.8,16.3,15.8s16.3-7.1,16.3-15.8C735.5,396.1,728.2,389,719.2,389
		 M719.2,415.6c-6.2,0-11.2-4.9-11.2-10.9c0-6,5-10.8,11.2-10.8c6.2,0,11.2,4.9,11.2,10.8C730.4,410.8,725.3,415.6,719.2,415.6"/>
	<path d="M762.2,403.9c1.7-1.5,2.6-3.6,2.6-6.2c0-5.3-4-8.7-10.5-8.7h-11.5c-0.9,0-1.7,0.8-1.7,1.7v28.2c0,0.9,0.8,1.7,1.7,1.7h11.6
		c7.4,0,11.8-3.5,11.8-9.3C766.2,408,764.8,405.4,762.2,403.9 M754.3,401.8h-8.2V394h8.2c2.5,0,5.5,0.7,5.5,3.9
		C759.8,400.5,758,401.8,754.3,401.8 M746.2,406.8h8.2c2.6,0,6.9,0.6,6.9,4.3c0,3.7-3.8,4.5-6.9,4.5h-8.2V406.8z"/>
	<path d="M786.7,390c-0.3-0.6-0.9-1-1.5-1h-1.8c-0.7,0-1.2,0.4-1.5,1l-12.8,28.2c-0.2,0.5-0.2,1.1,0.1,1.6c0.3,0.5,0.8,0.8,1.4,0.8
		h1.9c0.7,0,1.2-0.4,1.5-1l3.2-7.1h14.4l3.2,7.1c0.3,0.6,0.9,1,1.5,1h1.9c0.6,0,1.1-0.3,1.4-0.8c0.3-0.5,0.3-1.1,0.1-1.6L786.7,390z
		 M779.4,407.5l4.9-10.9l5,10.9H779.4z"/>
	<path d="M808,389h-1.7c-0.9,0-1.7,0.8-1.7,1.7v28.2c0,0.9,0.8,1.7,1.7,1.7h1.7c0.9,0,1.7-0.8,1.7-1.7v-28.2
		C809.7,389.8,809,389,808,389"/>
	<path d="M843.3,389h-1.7c-0.9,0-1.7,0.8-1.7,1.7v20.6l-15.8-21.5c-0.3-0.4-0.8-0.7-1.3-0.7h-2c-0.9,0-1.7,0.8-1.7,1.7v28.2
		c0,0.9,0.8,1.7,1.7,1.7h1.7c0.9,0,1.7-0.8,1.7-1.7v-20.5l15.8,21.5c0.3,0.4,0.8,0.7,1.3,0.7h2c0.9,0,1.7-0.8,1.7-1.7v-28.2
		C844.9,389.8,844.2,389,843.3,389"/>
</g>
<g>
	<path d="M487.8,248.8c-30.6,0-52.7,22.8-52.7,52.2c0,32.7,26.1,52.4,57.4,52.4c20.1,0,31.6-6.6,39.6-11.9c3-2,3.5-6.3,0.8-8.8
		l-6.7-6.3c-1.8-1.7-4.5-2-6.6-0.7c-0.9,0.5-12,7.7-26.3,7.7c-19.5,0-30.7-11.8-33.5-22.1h74.8c2.8,0,5.2-2.1,5.5-4.9
		c0.2-1.9,0.3-3.6,0.3-5.3C540.3,271.1,517,248.8,487.8,248.8z M487.8,268.5c15.9,0,25.8,11.2,28.5,23.4h-56.9
		C462.3,278.7,472,268.5,487.8,268.5z"/>
	<g>
		<path d="M416.1,251.1h12.7c3.8,0,6.5,3.8,5.2,7.4l-30.5,88.8c-0.8,2.3-2.9,3.8-5.3,3.8h-17.6c-2.4,0-4.6-1.6-5.3-3.9L356.1,286
			l-19.2,61.2c-0.7,2.3-2.9,3.9-5.3,3.9H314c-2.4,0-4.5-1.5-5.3-3.8l-30.5-88.8c-1.2-3.6,1.4-7.4,5.2-7.4h12.7
			c2.4,0,4.6,1.6,5.3,3.9l21.4,68.3l21.7-68.3c0.7-2.3,2.9-3.9,5.3-3.9h12.5c2.4,0,4.6,1.6,5.3,3.9l21.8,68.6l21.3-68.6
			C411.5,252.7,413.6,251.1,416.1,251.1z"/>
	</g>
	<path d="M839.5,249c-19.3,0-40.4,6.4-55.4,16.3c-1.5,1-2.4,2.8-2.4,4.6v75.6c0,3.1,2.5,5.6,5.6,5.6h12.1c3.1,0,5.6-2.5,5.6-5.6V280
		c10.9-6.3,23.9-8.7,34.7-9c3-0.1,5.3-2.5,5.3-5.5v-10.9C844.9,251.5,842.5,249,839.5,249z"/>
	<path d="M717.3,248.8c-30.6,0-52.7,22.8-52.7,52.2c0,32.7,26.1,52.4,57.3,52.4c20.1,0,31.6-6.6,39.6-11.9c3-2,3.5-6.3,0.8-8.8
		l-6.7-6.3c-1.8-1.7-4.5-2-6.6-0.7c-0.9,0.5-12,7.7-26.3,7.7c-19.5,0-30.7-11.8-33.5-22.1h74.8c2.8,0,5.2-2.1,5.5-4.9
		c0.2-1.9,0.3-3.6,0.3-5.3C769.9,271.1,746.5,248.8,717.3,248.8z M717.3,268.5c15.9,0,25.8,11.2,28.5,23.4H689
		C691.9,278.7,701.5,268.5,717.3,268.5z"/>
	<path d="M605.6,248.8c-8.9,0-18.5,1.1-30.7,9v-39.4c0-3.1-2.5-5.6-5.5-5.6h-11.6c-3.1,0-5.5,2.5-5.5,5.6v105.4c0,2.5,1,4.9,2.4,7
		c9.3,14.1,29.9,22.6,46.6,22.6c22.4,0,34.7-7.9,43.2-17.8c8.3-9.7,12.5-21.6,12.5-34.4C656.8,272.8,635,248.8,605.6,248.8z
		 M602.5,332.3c-12.8,0-22-5.4-27.6-12.4v-34.8c4.1-6.6,13.4-15.1,27.6-15.1c18,0,31.3,14.9,31.3,31.2
		C633.8,318.6,619,332.3,602.5,332.3z"/>
</g>
</svg>
