<svg xmlns="http://www.w3.org/2000/svg" viewBox="0 0 75 75"><defs><style>.cls-1{fill:#6415ff;}.cls-2{fill:#fff;}</style></defs><g id="Layer_2" data-name="Layer 2"><g id="Layer_1-2" data-name="Layer 1"><circle class="cls-1" cx="37.5" cy="37.5" r="37.5"/><path class="cls-2" d="M29.28,41.61a7.55,7.55,0,0,1-2.14,2.54,9.06,9.06,0,0,1-3.07,1.5,13.59,13.59,0,0,1-3.63.48,17.41,17.41,0,0,1-3.91-.4c-1.16-.26-2.42-.6-3.77-1V26.94H10.18V21.25H21a7.26,7.26,0,0,1,2.9.58,7.57,7.57,0,0,1,2.37,1.6,7.48,7.48,0,0,1,1.59,2.37,7.21,7.21,0,0,1,.58,2.89,7.46,7.46,0,0,1-1,3.71,7,7,0,0,1,1.93,2.52A7.64,7.64,0,0,1,30.09,38,7.51,7.51,0,0,1,29.28,41.61Zm-5.15-4.75a1.79,1.79,0,0,0-.68-.63,3.63,3.63,0,0,0-1-.33,5.48,5.48,0,0,0-1-.1h-3v4.63l1,.12a8.35,8.35,0,0,0,1,.05c2.64,0,3.95-.9,3.95-2.71A1.86,1.86,0,0,0,24.13,36.86ZM22.2,27.32a1.88,1.88,0,0,0-1.38-.58h-2.3v3.91h2.41a1.72,1.72,0,0,0,1.32-.58,2,2,0,0,0,.53-1.38A1.92,1.92,0,0,0,22.2,27.32Z"/><path class="cls-2" d="M52.28,40.09h9.4v5.69H42.47L53,27.29H43.63v-5.7H62.82Z"/><path class="cls-2" d="M9.53,50.82c.56-.71,11.17,6.47,27.67,6.7S65,51,65.48,51.68,53.15,61.83,36.92,61.59,8.92,51.6,9.53,50.82Z"/></g></g></svg>